<svg aria-hidden="true" style="position: absolute; width: 0; height: 0; overflow: hidden;" version="1.1" xmlns="http://www.w3.org/2000/svg" xmlns:xlink="http://www.w3.org/1999/xlink">
<defs>
<symbol id="sficon-abajo" viewBox="0 0 117 64">
<path d="M9.665 62.258c-1.019 1.026-2.43 1.661-3.989 1.661-3.105 0-5.622-2.517-5.622-5.622 0-1.545 0.624-2.945 1.633-3.962l52.706-52.706c1.016-1.010 2.416-1.634 3.961-1.634s2.946 0.624 3.962 1.634l52.706 52.706c1.009 1.016 1.633 2.416 1.633 3.961 0 3.105-2.517 5.622-5.622 5.622-1.559 0-2.971-0.635-3.989-1.66l-0-0-45.682-45.738c-0.762-0.761-1.815-1.232-2.978-1.232s-2.216 0.471-2.978 1.232l0-0z"></path>
</symbol>
<symbol id="sficon-abajo-c" viewBox="0 0 106 64">
<path d="M102.621 18.979l-41.821 41.821c-2 2.016-4.771 3.264-7.834 3.264s-5.834-1.248-7.834-3.263l-0.001-0.001-41.821-41.821c-2.005-2.005-3.245-4.775-3.245-7.835 0-6.119 4.96-11.080 11.080-11.080 3.060 0 5.829 1.24 7.835 3.245v0l28.138 28.248c1.497 1.495 3.565 2.42 5.848 2.42s4.351-0.925 5.848-2.42l-0 0 28.138-28.248c2.005-2.005 4.775-3.245 7.835-3.245 6.119 0 11.080 4.96 11.080 11.080 0 3.060-1.24 5.829-3.245 7.835v0z"></path>
</symbol>
<symbol id="sficon-admiracion" viewBox="0 0 64 64">
<path d="M64 31.748c0-17.638-14.11-31.748-31.748-31.748s-31.748 14.11-31.748 31.748c0 17.638 14.11 31.748 31.748 31.748s31.748-14.11 31.748-31.748zM32.252 44.85c2.52 0 4.032 2.016 4.032 4.032 0 2.52-2.016 4.032-4.032 4.032-2.52 0-4.032-2.016-4.032-4.032 0-2.52 2.016-4.032 4.032-4.032zM29.732 13.102h5.543c1.008 0 2.016 1.008 2.016 2.016l-1.512 22.173c0 1.008-1.008 1.512-2.016 1.512h-2.016c-1.008 0-2.016-0.504-2.016-1.512l-1.512-22.173c0-1.008 1.008-2.016 2.016-2.016z"></path>
</symbol>
<symbol id="sficon-agenda" viewBox="0 0 49 64">
<path d="M39.425 0c5.009 0 9.461 4.452 9.461 9.461v45.078c0 5.009-4.452 9.461-9.461 9.461h-30.052c-5.009 0-9.461-4.452-9.461-9.461 0-15.026 0-30.052 0-45.078 0-5.009 4.452-9.461 9.461-9.461 10.017 0 20.035 0 30.052 0zM14.938 18.922c-3.896 0-3.896-6.122 0-6.122h19.478c3.896 0 3.896 6.122 0 6.122h-19.478zM14.938 51.757c-3.896 0-3.896-6.122 0-6.122h19.478c3.896 0 3.896 6.122 0 6.122h-19.478zM14.938 35.617c-3.896 0-3.896-6.122 0-6.122h19.478c3.896 0 3.896 6.122 0 6.122h-19.478zM40.538 58.435c1.113 0 2.226-1.113 2.226-2.226v-47.304c0-1.113-1.113-2.226-2.226-2.226-9.461 0-22.261 0-31.722 0-1.113 0-2.226 1.113-2.226 2.226 0 14.47 0 32.835 0 47.304 0 1.113 1.113 2.226 2.226 2.226h31.722z"></path>
</symbol>
<symbol id="sficon-ajustes" viewBox="0 0 64 64">
<path d="M30.843 64c-0.004 0-0.009 0-0.015 0-3.060 0-5.65-2.017-6.511-4.794l-0.013-0.048-1.295-4.195c-0.056-0.185-0.192-0.331-0.366-0.4l-0.004-0.001-4.195 2.19c-0.947 0.533-2.078 0.847-3.284 0.847-1.92 0-3.654-0.797-4.888-2.079l-0.002-0.002-1.789-1.82c-1.255-1.228-2.034-2.938-2.034-4.831 0-1.167 0.296-2.266 0.818-3.224l-0.018 0.035 2.005-3.886c0.036-0.082 0.057-0.177 0.057-0.278s-0.021-0.196-0.058-0.282l0.002 0.005-4.503-1.419c-2.778-0.903-4.75-3.469-4.75-6.496 0-0.015 0-0.030 0-0.045v0.002-2.437c-0.001-0.041-0.001-0.089-0.001-0.137 0-3.061 2.018-5.651 4.795-6.512l0.048-0.013 4.411-1.419c0.036-0.082 0.057-0.177 0.057-0.278s-0.021-0.196-0.058-0.282l0.002 0.005-2.005-3.886c-0.504-0.923-0.8-2.021-0.8-3.188 0-1.893 0.778-3.603 2.032-4.83l0.001-0.001 1.789-1.82c1.233-1.258 2.949-2.037 4.847-2.037 1.173 0 2.276 0.298 3.238 0.821l-0.036-0.018 4.195 2.19c0.179-0.070 0.314-0.216 0.369-0.397l0.001-0.004 1.295-4.195c0.874-2.826 3.464-4.844 6.525-4.844 0.048 0 0.097 0.001 0.145 0.002l-0.007-0h2.56c0.004 0 0.009 0 0.014 0 3.060 0 5.65 2.017 6.511 4.794l0.013 0.048 1.326 4.195c0.034 0.187 0.164 0.337 0.336 0.4l0.004 0.001 4.195-2.19c0.927-0.506 2.030-0.803 3.203-0.803 1.898 0 3.615 0.78 4.846 2.036l0.001 0.001 1.789 1.82c1.255 1.228 2.034 2.938 2.034 4.831 0 1.168-0.296 2.266-0.818 3.224l0.018-0.035-2.19 3.886c-0.036 0.082-0.057 0.177-0.057 0.278s0.021 0.196 0.058 0.282l-0.002-0.005 4.503 1.419c2.81 0.884 4.813 3.466 4.813 6.515 0 0.052-0.001 0.103-0.002 0.154l0-0.008v2.56c0 0.004 0 0.009 0 0.014 0 3.060-2.017 5.65-4.794 6.511l-0.048 0.013-4.503 1.419c-0.036 0.082-0.057 0.177-0.057 0.278s0.021 0.196 0.058 0.282l-0.002-0.005 2.066 3.886c0.504 0.923 0.8 2.021 0.8 3.188 0 1.893-0.778 3.603-2.032 4.83l-0.001 0.001-1.789 1.82c-1.233 1.258-2.949 2.037-4.847 2.037-1.173 0-2.276-0.297-3.238-0.821l0.036 0.018-4.195-2.19c-0.175 0.064-0.305 0.214-0.339 0.398l-0.001 0.003-1.326 4.195c-0.874 2.825-3.464 4.842-6.524 4.842-0.005 0-0.010 0-0.015 0h0.001zM32.108 26.988c-0.028-0.001-0.060-0.001-0.092-0.001-2.76 0-4.997 2.237-4.997 4.997s2.237 4.997 4.997 4.997c2.748 0 4.979-2.219 4.996-4.963v-0.002c0-0.009 0-0.020 0-0.031 0-2.742-2.223-4.966-4.966-4.966-0.022 0-0.043 0-0.065 0l0.003-0zM32.108 20.819c0.009 0 0.020-0 0.031-0 6.166 0 11.165 4.999 11.165 11.165s-4.999 11.165-11.165 11.165c-6.166 0-11.165-4.999-11.165-11.165v0c0.017-6.099 4.922-11.048 11.003-11.134l0.008-0zM30.843 6.169c-0.015-0.001-0.032-0.002-0.049-0.002-0.304 0-0.558 0.209-0.629 0.491l-0.001 0.004-1.419 4.195c-0.791 2.748-3.282 4.724-6.235 4.724-1.031 0-2.005-0.241-2.87-0.669l0.038 0.017-4.256-2.221c-0.064-0.022-0.139-0.035-0.216-0.035s-0.152 0.013-0.221 0.037l0.005-0.001c-0.149 0.030-0.277 0.107-0.369 0.215l-0.001 0.001-1.82 1.82c-0.092 0.107-0.148 0.248-0.148 0.401s0.056 0.294 0.149 0.402l-0.001-0.001 2.036 3.917c0.509 0.904 0.808 1.983 0.808 3.133 0 2.817-1.799 5.214-4.31 6.106l-0.045 0.014-4.534 1.388c-0.333 0.029-0.593 0.307-0.593 0.645 0 0.033 0.003 0.066 0.007 0.098l-0-0.004v2.56c-0.001 0.015-0.002 0.032-0.002 0.049 0 0.304 0.209 0.559 0.491 0.629l0.004 0.001 4.534 1.388c2.557 0.905 4.355 3.303 4.355 6.12 0 1.15-0.3 2.23-0.825 3.166l0.017-0.033-2.036 3.917c-0.092 0.107-0.148 0.248-0.148 0.401s0.056 0.294 0.149 0.402l-0.001-0.001 1.82 1.82c0.093 0.109 0.221 0.186 0.366 0.215l0.004 0.001c0.064 0.022 0.139 0.035 0.216 0.035s0.152-0.013 0.221-0.037l-0.005 0.001 4.226-2.221c0.827-0.411 1.802-0.652 2.833-0.652 2.953 0 5.444 1.976 6.224 4.678l0.011 0.046 1.295 4.195c0.071 0.286 0.326 0.495 0.63 0.495 0.017 0 0.034-0.001 0.051-0.002l-0.002 0h2.56c0.015 0.001 0.032 0.002 0.049 0.002 0.304 0 0.559-0.209 0.629-0.491l0.001-0.004 1.295-4.195c0.791-2.748 3.282-4.724 6.235-4.724 1.031 0 2.005 0.241 2.87 0.669l-0.038-0.017 4.226 2.221c0.064 0.022 0.139 0.035 0.216 0.035s0.151-0.013 0.221-0.037l-0.005 0.001c0.149-0.030 0.277-0.107 0.369-0.215l0.001-0.001 1.82-1.82c0.092-0.107 0.148-0.248 0.148-0.401s-0.056-0.294-0.149-0.402l0.001 0.001-1.696-4.010c-0.509-0.904-0.808-1.983-0.808-3.133 0-2.817 1.798-5.214 4.31-6.106l0.045-0.014 4.441-1.45c0.286-0.071 0.495-0.326 0.495-0.63 0-0.017-0.001-0.034-0.002-0.051l0 0.002v-2.406c0.001-0.015 0.002-0.032 0.002-0.049 0-0.304-0.209-0.558-0.491-0.629l-0.004-0.001-4.534-1.388c-2.557-0.905-4.355-3.303-4.355-6.12 0-1.15 0.3-2.23 0.825-3.166l-0.017 0.033 2.036-4.102c0.092-0.107 0.148-0.248 0.148-0.401s-0.056-0.294-0.149-0.402l0.001 0.001-1.943-1.789c-0.093-0.109-0.221-0.186-0.366-0.215l-0.004-0.001c-0.064-0.022-0.139-0.035-0.216-0.035s-0.151 0.013-0.221 0.037l0.005-0.001-4.226 2.221c-0.827 0.412-1.802 0.652-2.833 0.652-2.953 0-5.444-1.976-6.224-4.678l-0.011-0.046-1.326-4.102c-0.072-0.286-0.326-0.494-0.629-0.494-0.007 0-0.013 0-0.020 0h0.001z"></path>
</symbol>
<symbol id="sficon-aniadir" viewBox="0 0 64 64">
<path d="M3.089 35.089c-1.706 0-3.089-1.383-3.089-3.089s1.383-3.089 3.089-3.089v0h23.506c1.272-0.017 2.299-1.044 2.317-2.315v-23.507c0-1.706 1.383-3.089 3.089-3.089s3.089 1.383 3.089 3.089v0 23.506c0.017 1.272 1.044 2.299 2.315 2.317h23.569c1.706 0 3.089 1.383 3.089 3.089s-1.383 3.089-3.089 3.089v0h-23.568c-1.272 0.017-2.299 1.044-2.317 2.315v23.569c0 1.706-1.383 3.089-3.089 3.089s-3.089-1.383-3.089-3.089v0-23.568c-0.017-1.272-1.044-2.299-2.315-2.317h-0.002z"></path>
</symbol>
<symbol id="sficon-arriba" viewBox="0 0 117 64">
<path d="M107.041 1.686c1.021-1.021 2.431-1.653 3.989-1.653 3.116 0 5.642 2.526 5.642 5.642 0 1.558-0.632 2.969-1.653 3.989v0l-52.706 52.65c-1.016 1.010-2.416 1.634-3.961 1.634s-2.946-0.624-3.962-1.634l0 0-52.706-52.65c-1.021-1.021-1.653-2.431-1.653-3.989 0-3.116 2.526-5.642 5.642-5.642 1.558 0 2.968 0.631 3.989 1.653l45.738 45.738c0.756 0.775 1.811 1.256 2.978 1.256s2.222-0.481 2.977-1.255l0.001-0.001z"></path>
</symbol>
<symbol id="sficon-arriba-c" viewBox="0 0 106 64">
<path d="M3.31 45.021l41.821-41.821c2-2.016 4.772-3.264 7.834-3.264s5.834 1.248 7.834 3.263l0.001 0.001 41.821 41.821c2.005 2.005 3.245 4.775 3.245 7.834 0 6.119-4.96 11.080-11.080 11.080-3.060 0-5.829-1.24-7.835-3.245v0l-28.138-28.248c-1.497-1.495-3.565-2.42-5.848-2.42s-4.351 0.925-5.848 2.42l0-0-28.138 28.248c-2.005 2.005-4.775 3.245-7.835 3.245-6.119 0-11.080-4.961-11.080-11.080 0-3.060 1.24-5.829 3.245-7.834v0z"></path>
</symbol>
<symbol id="sficon-ayuda" viewBox="0 0 79 64">
<path d="M28.293 49.664l0.080 0.005c-0.609-0.050-1.225-0.075-1.847-0.075-4.487 0-8.664 1.324-12.077 3.55l0.172-0.088c-2.14 1.192-4.423 2.157-7.056 2.925v-30.525l0.092-0.012c0.798-0.126 1.576-0.311 2.215-0.517v17.21c0 5.031 9.040 5.939 12.823 5.939l-0.039 0.005c0.344-0.051 0.697-0.077 1.055-0.077 1.749 0 3.351 0.628 4.582 1.661zM35.48 45.957l-0.026-0.037c-2.487-3.37-6.485-5.555-10.994-5.555-0.703 0-1.393 0.053-1.991 0.146l0.044-0.003c-0.344 0.032-0.693 0.048-1.046 0.048-1.434 0-2.806-0.266-3.991-0.725v-30.26l-0.079-0.008c0.669 0.088 1.352 0.133 2.046 0.133 1.592 0 3.128-0.239 4.463-0.655 2.837-0.681 5.333-1.286 11.574 12.369zM50.194 49.664c1.23-1.031 2.83-1.657 4.576-1.657 0.347 0 0.688 0.025 1.022 0.072l-0.038-0.005c3.782 0 12.823-0.908 12.823-5.939v-17.21c0.652 0.209 1.443 0.394 2.255 0.518l0.090 0.011v30.525c-2.633-0.768-4.916-1.733-7.056-2.925l0.172 0.088c-3.413-2.226-7.59-3.55-12.077-3.55-0.622 0-1.238 0.025-1.847 0.075l0.080-0.005zM43.045 21.409c6.203-13.655 8.7-13.050 11.347-12.369 1.336 0.415 2.872 0.655 4.463 0.655 0.693 0 1.376-0.045 2.046-0.133l-0.079 0.008v30.26c-1.185 0.459-2.557 0.725-3.991 0.725-0.353 0-0.701-0.016-1.046-0.048l0.044 0.003c-0.598-0.093-1.288-0.147-1.991-0.147-4.498 0-8.485 2.187-10.956 5.556l-0.027 0.038zM39.262 64c0.982-0.014 1.872-0.4 2.536-1.023l-0.002 0.002c8.775-8.095 13.504-5.712 18.913-3.064 4.019 2.413 8.834 3.908 13.984 4.084l0.049 0.001c2.089 0 3.782-1.694 3.782-3.782v0-38.317c0-2.089-1.694-3.782-3.782-3.782v0c-0.232 0.016-0.502 0.025-0.775 0.025-1.948 0-3.79-0.456-5.424-1.267l0.071 0.032v-13.125c0-2.089-1.694-3.783-3.782-3.783-0.856 0-1.645 0.284-2.279 0.763l0.010-0.007c-1.087 0.823-2.462 1.319-3.952 1.319-0.822 0-1.609-0.151-2.334-0.426l0.045 0.015c-5.295-1.248-10.061-2.383-17.059 10.44-7.035-12.823-11.801-11.688-17.097-10.44-0.68 0.26-1.467 0.411-2.289 0.411-1.491 0-2.865-0.495-3.969-1.331l0.017 0.012c-0.617-0.455-1.393-0.729-2.232-0.729-2.079 0-3.767 1.678-3.782 3.753v13.127c-1.563 0.779-3.405 1.235-5.353 1.235-0.273 0-0.543-0.009-0.811-0.026l0.037 0.002c-2.089 0-3.783 1.694-3.783 3.782v0 38.317c0 2.089 1.694 3.782 3.783 3.782v0c5.199-0.177 10.015-1.672 14.167-4.16l-0.134 0.074c5.371-2.648 10.099-5.031 18.913 3.064 0.662 0.621 1.552 1.008 2.532 1.021h0.003z"></path>
</symbol>
<symbol id="sficon-cancelar" viewBox="0 0 64 64">
<path d="M16.539 20.494c-2.517-2.517 1.438-6.472 3.955-3.955l10.067 10.067c0.719 0.719 2.157 0.719 2.876 0l10.067-10.067c2.517-2.517 6.472 1.438 3.955 3.955l-10.067 10.067c-0.719 0.719-0.719 2.157 0 2.876l10.067 10.067c2.517 2.517-1.438 6.472-3.955 3.955l-10.067-10.067c-0.719-0.719-2.157-0.719-2.876 0l-10.067 10.067c-2.517 2.517-6.472-1.438-3.955-3.955l10.067-10.067c0.719-0.719 0.719-2.157 0-2.876l-10.067-10.067zM14.382 0h35.236c7.91 0 14.382 6.472 14.382 14.382v35.236c0 7.91-6.472 14.382-14.382 14.382h-35.236c-7.91 0-14.382-6.472-14.382-14.382v-35.236c0-7.91 6.472-14.382 14.382-14.382zM49.618 5.753h-35.236c-4.674 0-8.629 3.955-8.629 8.629v35.236c0 4.674 3.955 8.629 8.629 8.629h35.236c4.674 0 8.629-3.955 8.629-8.629v-35.236c0-4.674-3.955-8.629-8.629-8.629z"></path>
</symbol>
<symbol id="sficon-cerrar" viewBox="0 0 64 64">
<path d="M1.488 7.441c-3.721-3.721 2.233-9.675 5.954-5.954l22.327 22.327c1.488 1.488 2.977 1.488 4.465 0l22.327-22.327c3.721-3.721 9.675 2.233 5.954 5.954l-22.327 22.327c-1.488 1.488-1.488 2.977 0 4.465l22.327 22.327c3.721 3.721-2.233 9.675-5.954 5.954l-22.327-22.327c-1.488-1.488-2.977-1.488-4.465 0l-22.327 22.327c-3.721 3.721-9.675-2.233-5.954-5.954l22.327-22.327c1.488-1.488 1.488-2.977 0-4.465l-22.327-22.327z"></path>
</symbol>
<symbol id="sficon-chat" viewBox="0 0 79 64">
<path d="M15.856 0.023h47.569c8.457 0 15.856 6.871 15.856 15.856v14.799c0 7.928-5.814 14.799-14.271 15.856v11.628c0 2.643-1.586 4.757-4.228 5.814-2.643 0.529-5.285 0-6.871-2.643l-9.514-14.799h-28.541c-8.457 0-15.856-6.871-15.856-15.856v-14.799c0-8.457 6.871-15.856 15.856-15.856zM57.611 17.994c3.171 0 5.285 2.643 5.285 5.285 0 3.171-2.643 5.285-5.285 5.285-3.171 0-5.285-2.643-5.285-5.285 0-3.171 2.643-5.285 5.285-5.285zM39.641 17.994c3.171 0 5.285 2.643 5.285 5.285 0 3.171-2.643 5.285-5.285 5.285-3.171 0-5.285-2.643-5.285-5.285 0-3.171 2.643-5.285 5.285-5.285zM21.67 17.994c3.171 0 5.285 2.643 5.285 5.285 0 3.171-2.643 5.285-5.285 5.285-3.171 0-5.285-2.643-5.285-5.285 0-3.171 2.643-5.285 5.285-5.285zM63.425 6.894h-47.569c-4.757 0-8.985 4.228-8.985 8.985v14.799c0 4.757 4.228 8.985 8.985 8.985h32.241l10.042 15.328v-15.328h5.285c4.757 0 8.985-4.228 8.985-8.985v-14.799c0-4.757-4.228-8.985-8.985-8.985z"></path>
</symbol>
<symbol id="sficon-check" viewBox="0 0 64 64">
<path d="M43.11 18.159c0.912-0.851 2.14-1.374 3.49-1.374 2.828 0 5.12 2.292 5.12 5.12 0 1.35-0.523 2.579-1.377 3.493l0.003-0.003-20.48 20.48c-0.93 0.917-2.208 1.483-3.618 1.483s-2.688-0.566-3.619-1.484l0.001 0.001-8.977-8.943c-0.851-0.912-1.374-2.14-1.374-3.49 0-2.828 2.292-5.12 5.12-5.12 1.35 0 2.579 0.523 3.493 1.377l-0.003-0.003 5.325 5.325zM64 32.017c0-0.010 0-0.022 0-0.034 0-17.683-14.334-32.017-32.017-32.017s-32.017 14.335-32.017 32.017c0 17.683 14.335 32.017 32.017 32.017 0.012 0 0.024 0 0.036 0h-0.002c17.656-0.019 31.964-14.327 31.983-31.981v-0.002z"></path>
</symbol>
<symbol id="sficon-copiar" viewBox="0 0 52 64">
<path d="M44.402 11.556c4 0 7.556 3.556 7.556 7.556v37.333c0 4-3.556 7.556-7.556 7.556h-24.889c-4 0-7.556-3.556-7.556-7.556v-4.444h-4c-4 0-7.556-3.556-7.556-7.556 0-12 0-24.444 0-36.889 0-4 3.556-7.556 7.556-7.556 8 0 16 0 24 0 4 0 7.556 3.556 7.556 7.556v2.667c0 0.444 0.444 1.333 1.333 1.333h3.556zM24.402 40.444c-3.111 0-3.111-4.889 0-4.889h15.111c3.111 0 3.111 4.889 0 4.889h-15.111zM24.402 28.444c-3.111 0-3.111-4.889 0-4.889h15.111c3.111 0 3.111 4.889 0 4.889h-15.111zM24.402 52c-3.111 0-3.111-4.889 0-4.889h15.111c3.111 0 3.111 4.889 0 4.889h-15.111zM11.958 18.667c0-4 3.556-7.556 7.556-7.556h12.889c0.444 0 1.333-0.444 1.333-1.333v-2.222c0-0.889-0.889-1.778-1.778-1.778-7.556 0-16 0-23.111 0-0.889 0-1.778 0.889-1.778 1.778 0 11.111 0 24 0 35.556 0 0.889 0.889 1.778 1.778 1.778s1.778 0 2.222 0c0.444 0 0.889-0.444 0.889-0.889v-24.889zM43.958 57.333c0.889 0 1.778-0.889 1.778-1.778v-36c0-0.889-0.889-1.778-1.778-1.778-7.556 0-16.444 0-23.556 0-0.889 0-1.778 0.889-1.778 1.778 0 11.111 0 24.444 0 36 0 0.889 0.889 1.778 1.778 1.778h23.556z"></path>
</symbol>
<symbol id="sficon-der" viewBox="0 0 35 64">
<path d="M0.924 5.3c-0.56-0.56-0.906-1.333-0.906-2.188 0-1.709 1.385-3.094 3.094-3.094 0.854 0 1.628 0.346 2.188 0.906v0l28.872 28.903c0.554 0.557 0.896 1.325 0.896 2.172s-0.342 1.615-0.896 2.172l0-0-28.872 28.903c-0.56 0.56-1.333 0.906-2.188 0.906-1.709 0-3.094-1.385-3.094-3.094 0-0.854 0.346-1.628 0.906-2.188v0l25.082-25.052c0.425-0.415 0.689-0.993 0.689-1.633s-0.264-1.218-0.688-1.633l-0-0z"></path>
</symbol>
<symbol id="sficon-discoduro" viewBox="0 0 46 64">
<path d="M39.788 32.015v-20.912c-0.017-2.729-2.234-4.935-4.966-4.935-0 0-0 0-0 0h-23.719c-2.726 0-4.935 2.209-4.935 4.935v0 41.793c0 2.725 2.209 4.935 4.935 4.935h23.719c0 0 0 0 0 0 2.732 0 4.948-2.206 4.966-4.933v-0.002zM35.593 51.169c0 1.363-1.105 2.468-2.468 2.468v0h-7.927c-0 0-0 0-0 0-1.369 0-2.481-1.101-2.498-2.466v-2.346c0.017-1.366 1.129-2.468 2.498-2.468 0 0 0 0 0 0h7.927c1.363 0 2.468 1.105 2.468 2.468v0zM22.978 28.869c-1.703 0-3.084-1.381-3.084-3.084s1.381-3.084 3.084-3.084c1.703 0 3.084 1.381 3.084 3.084v0c0 1.703-1.381 3.084-3.084 3.084v0zM21.344 37.536c0.106-0.216 0.168-0.471 0.168-0.74 0-0.945-0.766-1.711-1.711-1.711-0.676 0-1.26 0.392-1.538 0.96l-0.004 0.010-7.341 12.152c-0.187 0.327-0.297 0.718-0.297 1.135 0 0.815 0.422 1.532 1.059 1.944l0.009 0.005 1.696 0.833c0.267 0.116 0.577 0.184 0.904 0.184 1.001 0 1.853-0.635 2.175-1.525l0.005-0.016zM25.23 12.060c-0.641-0.104-1.381-0.163-2.134-0.163-6.937 0-12.698 5.033-13.831 11.646l-0.012 0.083c-0.112 0.669-0.176 1.441-0.176 2.227 0 2.314 0.555 4.498 1.54 6.427l-0.037-0.080c0.412 0.637 1.119 1.052 1.923 1.052 1.261 0 2.282-1.022 2.282-2.282 0-0.36-0.084-0.701-0.232-1.004l0.006 0.013c-0.641-1.252-1.016-2.73-1.016-4.297 0-0.464 0.033-0.921 0.097-1.368l-0.006 0.051c0.96-4.292 4.737-7.453 9.252-7.453 5.23 0 9.469 4.239 9.469 9.469 0 0.376-0.022 0.747-0.065 1.112l0.004-0.044c-0.314 1.987-1.221 3.721-2.531 5.060l0.002-0.002c-0.462 0.421-0.75 1.025-0.75 1.696 0 1.266 1.026 2.293 2.293 2.293 0.595 0 1.137-0.226 1.544-0.598l-0.002 0.002c2.039-2.038 3.463-4.691 3.967-7.658l0.012-0.084c0.121-0.691 0.191-1.488 0.191-2.3 0-6.945-5.068-12.707-11.707-13.789l-0.081-0.011zM45.957 11.104v41.793c-0.035 6.129-5.003 11.086-11.133 11.104h-23.72c-6.125-0.017-11.086-4.978-11.104-11.102v-41.794c0.018-6.125 4.978-11.086 11.102-11.104h23.72c6.132 0.017 11.1 4.974 11.134 11.1v0.003z"></path>
</symbol>
<symbol id="sficon-editar" viewBox="0 0 64 64">
<path d="M45.772 21.374c-0.563-0.559-0.912-1.334-0.912-2.19 0-1.704 1.382-3.086 3.086-3.086 0.848 0 1.617 0.342 2.175 0.896l1.234 1.234 5.212-5.243-5.583-5.552-40.775 40.806-2.498 8.019 8.42-2.56 25.878-25.939c0.529-0.439 1.215-0.705 1.963-0.705 1.703 0 3.084 1.381 3.084 3.084 0 0.794-0.3 1.518-0.793 2.065l0.002-0.003-26.309 26.402c-0.343 0.356-0.783 0.615-1.277 0.736l-0.018 0.004-14.527 4.472c-0.308 0.113-0.664 0.179-1.034 0.179-1.703 0-3.084-1.381-3.084-3.084 0-0.328 0.051-0.644 0.146-0.941l-0.006 0.022 4.318-14.126c0.142-0.584 0.434-1.086 0.832-1.48l43.489-43.489c0.557-0.554 1.326-0.897 2.174-0.897s1.617 0.343 2.175 0.897l9.931 9.931c0.554 0.557 0.897 1.326 0.897 2.174s-0.343 1.617-0.897 2.175l0-0-9.561 9.5c-0.557 0.554-1.326 0.897-2.174 0.897s-1.617-0.343-2.175-0.897l0 0z"></path>
</symbol>
<symbol id="sficon-escudo" viewBox="0 0 61 64">
<path d="M30.548 0c0.015-0.001 0.032-0.001 0.049-0.001 0.483 0 0.907 0.256 1.142 0.64l0.003 0.006c6.191 10.219 15.573 13.039 27.572 8.916 0.129-0.045 0.277-0.070 0.431-0.070 0.746 0 1.35 0.605 1.35 1.351 0 0.012-0 0.024-0.001 0.036l0-0.002c-0.992 35.472-12.441 38.95-29.711 52.825-0.224 0.186-0.514 0.299-0.83 0.299-0.002 0-0.005 0-0.007 0h0c-0.002 0-0.004 0-0.006 0-0.321 0-0.615-0.113-0.845-0.301l0.002 0.002c-17.27-13.876-28.707-17.354-29.699-52.801-0.001-0.018-0.001-0.038-0.001-0.059 0-0.746 0.605-1.351 1.351-1.351 0.154 0 0.303 0.026 0.441 0.074l-0.010-0.003c11.951 4.099 21.381 1.279 27.62-8.94 0.239-0.39 0.662-0.646 1.146-0.646 0.017 0 0.035 0 0.052 0.001l-0.003-0zM43.503 20.688c0.271-0.271 0.645-0.438 1.058-0.438 0.826 0 1.496 0.67 1.496 1.496 0 0.413-0.167 0.787-0.438 1.058l-19.517 19.517c-0.27 0.271-0.645 0.439-1.058 0.439s-0.787-0.168-1.058-0.439v0l-8.521-8.533c-0.234-0.263-0.377-0.611-0.377-0.993 0-0.825 0.669-1.494 1.494-1.494 0.385 0 0.735 0.145 1 0.384l-0.001-0.001 6.669 6.681c0.21 0.188 0.489 0.303 0.795 0.303s0.585-0.115 0.796-0.304l-0.001 0.001zM30.548 60.952c0.319-0.001 0.611-0.113 0.839-0.301l-0.002 0.002c19.278-15.238 25.887-19.086 27.178-46.491 0.001-0.019 0.002-0.041 0.002-0.063 0-0.746-0.605-1.351-1.35-1.351-0.115 0-0.227 0.014-0.334 0.041l0.009-0.002c-10.051 2.546-18.895 0.275-25.301-8.055-0.249-0.318-0.632-0.522-1.063-0.526h-0.001c-0.002 0-0.004 0-0.006 0-0.43 0-0.813 0.205-1.055 0.523l-0.002 0.003c-6.406 8.366-15.25 10.601-25.301 8.055-0.101-0.027-0.217-0.043-0.337-0.043-0.739 0-1.339 0.599-1.339 1.339 0 0.028 0.001 0.055 0.002 0.083l-0-0.004c1.327 27.405 7.948 31.253 27.225 46.491 0.224 0.186 0.514 0.299 0.83 0.299 0.002 0 0.005 0 0.007 0h-0z"></path>
</symbol>
<symbol id="sficon-flecha-abajo" viewBox="0 0 48 64">
<path d="M24.132 64c0.932-0.004 1.776-0.381 2.39-0.99l20.685-20.685c0.457-0.575 0.733-1.312 0.733-2.113 0-1.885-1.528-3.413-3.413-3.413-0.81 0-1.554 0.282-2.139 0.753l0.007-0.005-14.848 14.814v-48.947c0-1.885-1.528-3.413-3.413-3.413v0c-1.885 0-3.413 1.528-3.413 3.413v0 48.947l-14.848-14.814c-0.596-0.52-1.381-0.837-2.239-0.837-1.885 0-3.413 1.528-3.413 3.413 0 0.842 0.305 1.612 0.81 2.208l-0.004-0.005 20.685 20.685c0.617 0.612 1.466 0.99 2.404 0.99 0.007 0 0.014 0 0.021-0h-0.001z"></path>
</symbol>
<symbol id="sficon-flecha-arriba" viewBox="0 0 48 64">
<path d="M24.132 0c-0.006-0-0.013-0-0.020-0-0.938 0-1.787 0.378-2.404 0.99l0-0-20.685 20.685c-0.613 0.617-0.992 1.468-0.992 2.406 0 1.886 1.529 3.415 3.415 3.415 0.947 0 1.805-0.386 2.423-1.009l14.848-14.848v48.981c0 1.885 1.528 3.413 3.413 3.413v0c1.885 0 3.413-1.528 3.413-3.413v0-48.981l14.848 14.848c0.593 0.51 1.37 0.821 2.22 0.821 1.885 0 3.413-1.528 3.413-3.413 0-0.85-0.311-1.627-0.825-2.225l0.004 0.005-20.685-20.685c-0.613-0.609-1.457-0.986-2.389-0.99h-0.001z"></path>
</symbol>
<symbol id="sficon-guardar" viewBox="0 0 64 64">
<path d="M32.017 35.021c-0.051-0.002-0.111-0.003-0.171-0.003-3.148 0-5.7 2.552-5.7 5.7s2.552 5.7 5.7 5.7c3.147 0 5.699-2.551 5.7-5.698v-0c0-0.010 0-0.022 0-0.034 0-3.129-2.537-5.666-5.666-5.666-0 0-0 0-0 0v0zM21.504 6.827v7.305h12.117v-7.305zM40.448 6.827v10.752c0 1.885-1.528 3.413-3.413 3.413v0h-18.978c-1.885 0-3.413-1.528-3.413-3.413v0-10.752h-7.373c-0.245 0-0.444 0.199-0.444 0.444v0 46.080c0.019 2.115 1.739 3.823 3.857 3.823 0 0 0 0 0 0h42.633c0 0 0 0 0 0 2.118 0 3.838-1.707 3.857-3.821v-33.726c0.003-0.030 0.005-0.065 0.005-0.101 0-0.3-0.134-0.57-0.345-0.751l-0.001-0.001-11.605-11.605c-0.205-0.211-0.492-0.342-0.809-0.342-0.016 0-0.031 0-0.047 0.001l0.002-0zM7.27 0h37.103c0.018-0 0.038-0 0.059-0 2.196 0 4.181 0.901 5.605 2.354l11.607 11.607c1.454 1.426 2.355 3.411 2.355 5.607 0 0.021-0 0.042-0 0.063v-0.003 37.137c-0.019 4.001-3.267 7.236-7.27 7.236 0 0-0 0-0 0h-49.459c0 0-0 0-0 0-4.003 0-7.251-3.236-7.27-7.234v-49.495c0.019-4.008 3.263-7.251 7.269-7.27h0.002zM32.017 30.003c5.919 0 10.718 4.799 10.718 10.718s-4.799 10.718-10.718 10.718c-5.919 0-10.718-4.799-10.718-10.718v0c0-5.919 4.799-10.718 10.718-10.718v0z"></path>
</symbol>
<symbol id="sficon-izq" viewBox="0 0 35 64">
<path d="M34.142 58.7c0.563 0.559 0.911 1.333 0.911 2.188 0 1.703-1.38 3.083-3.083 3.083-0.848 0-1.615-0.342-2.173-0.895l-28.903-28.903c-0.554-0.557-0.896-1.325-0.896-2.172s0.342-1.615 0.896-2.172l28.903-28.903c0.557-0.553 1.325-0.895 2.172-0.895 1.703 0 3.083 1.38 3.083 3.083 0 0.855-0.348 1.629-0.911 2.188l-25.083 25.082c-0.418 0.418-0.676 0.995-0.676 1.633s0.258 1.215 0.676 1.633v0z"></path>
</symbol>
<symbol id="sficon-log-out" viewBox="0 0 50 64">
<path d="M43.168 14.769c0-4.376-3.282-7.658-7.658-7.658h-8.752c-4.376 0-4.376-7.111 0-7.111h11.487c6.564 0 11.487 5.47 11.487 11.487v40.479c0 6.564-5.47 11.487-11.487 11.487h-11.487c-4.376 0-4.376-7.111 0-7.111h8.752c4.376 0 7.658-3.282 7.658-7.658v-33.914zM14.723 24.615c2.735-2.735-1.641-7.111-4.376-4.376l-9.299 9.299c-1.094 1.094-1.094 3.282 0 4.376l9.299 9.299c2.735 2.735 7.111-1.641 4.376-4.376l-5.47-5.47c-1.094-1.094-1.094-2.188 0-3.282l5.47-5.47zM32.775 27.897c-2.188 0-4.376 1.641-4.376 4.376 0 2.188 1.641 4.376 4.376 4.376 2.188 0 4.376-1.641 4.376-4.376 0-2.188-1.641-4.376-4.376-4.376z"></path>
</symbol>
<symbol id="sficon-ojo-abierto" viewBox="0 0 170 64">
<path d="M167.722 42.726c6.826 8.776-5.851 18.527-12.677 9.751-39.005-48.756-101.413-48.756-140.419 0-6.826 8.776-19.503-1.95-12.677-9.751 45.831-56.557 119.941-56.557 165.772 0zM84.836 32c8.776 0 16.577 6.826 16.577 16.577 0 8.776-6.826 16.577-16.577 16.577-8.776 0-16.577-6.826-16.577-16.577 0-8.776 6.826-16.577 16.577-16.577z"></path>
</symbol>
<symbol id="sficon-ojo-cerrado" viewBox="0 0 194 64">
<path d="M177.076 3.239c7.895-9.023 22.557 2.256 14.662 11.279-51.882 65.416-136.472 65.416-189.482 0-7.895-9.023 6.767-21.43 14.662-11.279 45.115 55.266 115.043 55.266 160.157 0z"></path>
</symbol>
<symbol id="sficon-procesador" viewBox="0 0 64 64">
<path d="M38.054 25.606h-12.108c-0.181 0.015-0.325 0.159-0.34 0.338l-0 0.001v12.108c0 0.188 0.152 0.34 0.34 0.34v0h12.108c0.188 0 0.34-0.152 0.34-0.34v0-12.108c-0.015-0.181-0.158-0.325-0.338-0.34l-0.001-0zM25.946 19.429h12.108c3.592 0.017 6.5 2.925 6.517 6.516v12.11c-0.017 3.592-2.925 6.5-6.516 6.517h-12.11c-3.592-0.017-6.5-2.925-6.517-6.516v-12.11c0.017-3.592 2.925-6.5 6.516-6.517h0.002zM49.421 18.904c-0.035-2.362-1.957-4.263-4.324-4.263-0 0-0 0-0 0h-26.131c-2.388 0-4.324 1.936-4.324 4.324v0 26.070c-0 0.018-0 0.040-0 0.062 0 2.388 1.936 4.324 4.324 4.324 0 0 0 0 0 0h26.069c0.018 0 0.040 0 0.062 0 2.388 0 4.324-1.936 4.324-4.324 0-0 0-0 0-0.001v0c-0.216-8.741 0-17.297 0-26.193zM22.054 55.598v5.436c0 1.706-1.383 3.089-3.089 3.089s-3.089-1.383-3.089-3.089v0-5.961c-3.325-1.057-5.893-3.624-6.929-6.875l-0.021-0.075h-5.838c-1.706 0-3.089-1.383-3.089-3.089s1.383-3.089 3.089-3.089v0h5.374v-6.857h-5.375c-1.706 0-3.089-1.383-3.089-3.089s1.383-3.089 3.089-3.089v0h5.375v-6.857h-5.375c-1.706 0-3.089-1.383-3.089-3.089s1.383-3.089 3.089-3.089v0h5.869c1.051-3.319 3.606-5.884 6.844-6.929l0.075-0.021v-5.838c0-1.706 1.383-3.089 3.089-3.089s3.089 1.383 3.089 3.089v0 5.374h6.857v-5.375c0-1.706 1.383-3.089 3.089-3.089s3.089 1.383 3.089 3.089v0 5.375h6.857v-5.375c0-1.706 1.383-3.089 3.089-3.089s3.089 1.383 3.089 3.089v0 5.869c3.325 1.057 5.893 3.624 6.929 6.875l0.021 0.075h5.9c1.706 0 3.089 1.383 3.089 3.089s-1.383 3.089-3.089 3.089v0h-5.374v6.826h5.436c1.706 0 3.089 1.383 3.089 3.089s-1.383 3.089-3.089 3.089v0h-5.436v6.857h5.436c1.706 0 3.089 1.383 3.089 3.089s-1.383 3.089-3.089 3.089v0h-5.961c-1.057 3.325-3.624 5.893-6.875 6.929l-0.075 0.021v5.9c0 1.706-1.383 3.089-3.089 3.089s-3.089-1.383-3.089-3.089v0-5.374h-6.857v5.436c0 1.706-1.383 3.089-3.089 3.089s-3.089-1.383-3.089-3.089v0-5.436z"></path>
</symbol>
<symbol id="sficon-ram" viewBox="0 0 150 64">
<path d="M84.419 55.558v6.12c0 0 0 0 0 0.001 0 1.264-1.010 2.291-2.266 2.321l-0.003 0h-67.904c-1.387-0.029-2.504-1.146-2.533-2.53l-0-0.003v-6.12c0-0 0-0 0-0.001 0-1.264 1.009-2.291 2.266-2.321l0.003-0h68.010c1.342 0.085 2.401 1.181 2.427 2.53l0 0.002z"></path>
<path d="M137.708 55.558v5.909c0 0 0 0 0 0.001 0 1.38-1.104 2.502-2.477 2.532l-0.003 0h-35.931c-1.282 0-2.322-1.039-2.322-2.322v0-5.909c0-0 0-0 0-0.001 0-1.38 1.104-2.502 2.477-2.532l0.003-0h35.931c1.282 0 2.321 1.039 2.321 2.322v0z"></path>
<path d="M147.997 17.148c0.896-0.298 1.531-1.128 1.531-2.107 0-0.020-0-0.039-0.001-0.059l0 0.003v-9.075c0-0 0-0 0-0 0-3.245-2.616-5.879-5.854-5.909h-137.816c-3.241 0.030-5.857 2.664-5.857 5.909 0 0 0 0 0 0v0 9.075c-0 0.017-0.001 0.036-0.001 0.056 0 0.979 0.635 1.81 1.515 2.103l0.016 0.005c2.027 0.593 3.483 2.435 3.483 4.617s-1.455 4.024-3.449 4.608l-0.034 0.009c-0.848 0.311-1.456 1.078-1.53 1.997l-0.001 0.008v9.128c0 3.234 2.622 5.857 5.857 5.857v0h137.814c3.234 0 5.857-2.622 5.857-5.857v-9.128c-0.074-0.927-0.683-1.694-1.514-2l-0.016-0.005c-1.913-0.623-3.271-2.39-3.271-4.474 0-0.004 0-0.007 0-0.011v0.001c-0.003-0.059-0.004-0.127-0.004-0.196 0-2.106 1.356-3.895 3.242-4.542l0.034-0.010zM65.847 25.589c-0.030 4.028-3.302 7.281-7.334 7.281-0 0-0 0-0 0h-7.703c-4.021 0-7.281-3.26-7.281-7.281v0-7.756c0-4.021 3.26-7.281 7.281-7.281v0h7.703c0 0 0 0 0 0 4.032 0 7.304 3.253 7.334 7.278v0.003zM98.717 25.589c0 4.021-3.26 7.281-7.281 7.281v0h-7.756c-4.021 0-7.281-3.26-7.281-7.281v0-7.756c0-4.021 3.26-7.281 7.281-7.281v0h7.756c4.021 0 7.281 3.26 7.281 7.281v0zM131.641 25.589c0 4.021-3.26 7.281-7.281 7.281v0h-7.756c-4.021 0-7.281-3.26-7.281-7.281v0-7.756c0-4.021 3.26-7.281 7.281-7.281h7.756c0.079-0.003 0.171-0.005 0.264-0.005 4.021 0 7.281 3.26 7.281 7.281 0 0.002 0 0.003 0 0.005v-0z"></path>
</symbol>
<symbol id="sficon-red" viewBox="0 0 64 64">
<path d="M60.679 28.986c4.018 0 4.018 6.028 0 6.028h-10.046v8.037h3.215c4.42 0 8.037 3.617 8.037 8.037v4.42c0 4.42-3.617 8.037-8.037 8.037h-12.457c-4.42 0-8.037-3.617-8.037-8.037v-4.42c0-4.42 3.617-8.037 8.037-8.037h3.215v-8.037h-24.914v8.037h3.215c4.42 0 8.037 3.617 8.037 8.037v4.42c0 4.42-3.617 8.037-8.037 8.037h-12.457c-4.42 0-8.037-3.617-8.037-8.037v-4.42c0-4.42 3.617-8.037 8.037-8.037h3.215v-8.037h-10.448c-4.018 0-4.018-6.028 0-6.028h25.718v-8.037h-3.215c-4.42 0-8.037-3.617-8.037-8.037v-4.42c0-4.42 3.617-8.037 8.037-8.037h12.457c4.42 0 8.037 3.617 8.037 8.037v4.42c0 4.42-3.617 8.037-8.037 8.037h-3.215v8.037h25.718zM47.82 49.48h-6.028c-1.206 0-2.009 0.804-2.009 2.009v4.42c0 1.206 0.804 2.009 2.009 2.009h12.457c1.206 0 2.009-0.804 2.009-2.009v-4.42c0-1.206-0.804-2.009-2.009-2.009h-6.028zM37.773 6.483h-12.457c-1.206 0-2.009 0.804-2.009 2.009v4.42c0 1.206 0.804 2.009 2.009 2.009h12.457c1.206 0 2.009-0.804 2.009-2.009v-4.42c0-1.206-0.804-2.009-2.009-2.009zM10.448 49.48c-1.206 0-2.009 0.804-2.009 2.009v4.42c0 1.206 0.804 2.009 2.009 2.009h12.457c1.206 0 2.009-0.804 2.009-2.009v-4.42c0-1.206-0.804-2.009-2.009-2.009h-12.457z"></path>
</symbol>
<symbol id="sficon-temp" viewBox="0 0 55 64">
<path d="M10.733 5.644c-2.811 0-5.089 2.279-5.089 5.089s2.279 5.089 5.089 5.089c2.811 0 5.089-2.279 5.089-5.089v0c0-2.811-2.279-5.089-5.089-5.089v0zM10.733 0c5.928 0 10.733 4.806 10.733 10.733s-4.806 10.733-10.733 10.733c-5.928 0-10.733-4.806-10.733-10.733v0c0-5.928 4.806-10.733 10.733-10.733v0zM46.265 30.628c-8.359-6.169-9.253-12.738-7.526-19.092 0.040-0.154 0.062-0.33 0.062-0.512 0-1.175-0.953-2.128-2.128-2.128-0.546 0-1.045 0.206-1.422 0.544l0.002-0.002c-7.094 6.539-9.253 15.946-5.737 20.11 11.042 13.355-2.252 19.246-5.583 10.178-0.324-0.788-1.085-1.333-1.974-1.333s-1.65 0.545-1.969 1.319l-0.005 0.014c-3.3 8.019-1.172 17.766 5.706 21.868 22.269 10.548 39.788-15.144 20.573-30.967z"></path>
</symbol>
<symbol id="sficon-usuario" viewBox="0 0 49 64">
<path d="M6.221 60.657c0 3.821-6.209 3.821-6.209 0v-13.851c0-8.119 6.687-15.284 15.284-15.284h18.627c8.119 0 15.284 6.687 15.284 15.284v13.851c0 3.821-6.209 3.821-6.209 0v-13.851c0-4.776-3.821-9.075-9.075-9.075h-18.627c-4.776 0-9.075 3.821-9.075 9.075v13.851zM24.371 0c8.119 0 14.806 6.687 14.806 14.806s-6.687 14.806-14.806 14.806c-8.119 0-14.806-6.687-14.806-14.806s6.687-14.806 14.806-14.806zM24.371 6.209c-4.776 0-8.597 3.821-8.597 8.597s3.821 8.597 8.597 8.597c4.776 0 8.597-3.821 8.597-8.597s-3.821-8.597-8.597-8.597z"></path>
</symbol>
</defs>
</svg>
