<!-- Generated by IcoMoon.io -->
<svg version="1.1" xmlns="http://www.w3.org/2000/svg" width="106" height="64" viewBox="0 0 106 64">
<title>abajo-c</title>
<path d="M102.621 18.979l-41.821 41.821c-2 2.016-4.771 3.264-7.834 3.264s-5.834-1.248-7.834-3.263l-0.001-0.001-41.821-41.821c-2.005-2.005-3.245-4.775-3.245-7.835 0-6.119 4.96-11.080 11.080-11.080 3.060 0 5.829 1.24 7.835 3.245v0l28.138 28.248c1.497 1.495 3.565 2.42 5.848 2.42s4.351-0.925 5.848-2.42l-0 0 28.138-28.248c2.005-2.005 4.775-3.245 7.835-3.245 6.119 0 11.080 4.96 11.080 11.080 0 3.060-1.24 5.829-3.245 7.835v0z"></path>
</svg>
