<!-- Generated by IcoMoon.io -->
<svg version="1.1" xmlns="http://www.w3.org/2000/svg" width="117" height="64" viewBox="0 0 117 64">
<title>abajo</title>
<path d="M9.665 62.258c-1.019 1.026-2.43 1.661-3.989 1.661-3.105 0-5.622-2.517-5.622-5.622 0-1.545 0.624-2.945 1.633-3.962l52.706-52.706c1.016-1.010 2.416-1.634 3.961-1.634s2.946 0.624 3.962 1.634l52.706 52.706c1.009 1.016 1.633 2.416 1.633 3.961 0 3.105-2.517 5.622-5.622 5.622-1.559 0-2.971-0.635-3.989-1.66l-0-0-45.682-45.738c-0.762-0.761-1.815-1.232-2.978-1.232s-2.216 0.471-2.978 1.232l0-0z"></path>
</svg>
