<!-- Generated by IcoMoon.io -->
<svg version="1.1" xmlns="http://www.w3.org/2000/svg" width="64" height="64" viewBox="0 0 64 64">
<title>admiracion</title>
<path d="M64 31.748c0-17.638-14.11-31.748-31.748-31.748s-31.748 14.11-31.748 31.748c0 17.638 14.11 31.748 31.748 31.748s31.748-14.11 31.748-31.748zM32.252 44.85c2.52 0 4.032 2.016 4.032 4.032 0 2.52-2.016 4.032-4.032 4.032-2.52 0-4.032-2.016-4.032-4.032 0-2.52 2.016-4.032 4.032-4.032zM29.732 13.102h5.543c1.008 0 2.016 1.008 2.016 2.016l-1.512 22.173c0 1.008-1.008 1.512-2.016 1.512h-2.016c-1.008 0-2.016-0.504-2.016-1.512l-1.512-22.173c0-1.008 1.008-2.016 2.016-2.016z"></path>
</svg>
