<!-- Generated by IcoMoon.io -->
<svg version="1.1" xmlns="http://www.w3.org/2000/svg" width="64" height="64" viewBox="0 0 64 64">
<title>ajustes</title>
<path d="M30.843 64c-0.004 0-0.009 0-0.015 0-3.060 0-5.65-2.017-6.511-4.794l-0.013-0.048-1.295-4.195c-0.056-0.185-0.192-0.331-0.366-0.4l-0.004-0.001-4.195 2.19c-0.947 0.533-2.078 0.847-3.284 0.847-1.92 0-3.654-0.797-4.888-2.079l-0.002-0.002-1.789-1.82c-1.255-1.228-2.034-2.938-2.034-4.831 0-1.167 0.296-2.266 0.818-3.224l-0.018 0.035 2.005-3.886c0.036-0.082 0.057-0.177 0.057-0.278s-0.021-0.196-0.058-0.282l0.002 0.005-4.503-1.419c-2.778-0.903-4.75-3.469-4.75-6.496 0-0.015 0-0.030 0-0.045v0.002-2.437c-0.001-0.041-0.001-0.089-0.001-0.137 0-3.061 2.018-5.651 4.795-6.512l0.048-0.013 4.411-1.419c0.036-0.082 0.057-0.177 0.057-0.278s-0.021-0.196-0.058-0.282l0.002 0.005-2.005-3.886c-0.504-0.923-0.8-2.021-0.8-3.188 0-1.893 0.778-3.603 2.032-4.83l0.001-0.001 1.789-1.82c1.233-1.258 2.949-2.037 4.847-2.037 1.173 0 2.276 0.298 3.238 0.821l-0.036-0.018 4.195 2.19c0.179-0.070 0.314-0.216 0.369-0.397l0.001-0.004 1.295-4.195c0.874-2.826 3.464-4.844 6.525-4.844 0.048 0 0.097 0.001 0.145 0.002l-0.007-0h2.56c0.004 0 0.009 0 0.014 0 3.060 0 5.65 2.017 6.511 4.794l0.013 0.048 1.326 4.195c0.034 0.187 0.164 0.337 0.336 0.4l0.004 0.001 4.195-2.19c0.927-0.506 2.030-0.803 3.203-0.803 1.898 0 3.615 0.78 4.846 2.036l0.001 0.001 1.789 1.82c1.255 1.228 2.034 2.938 2.034 4.831 0 1.168-0.296 2.266-0.818 3.224l0.018-0.035-2.19 3.886c-0.036 0.082-0.057 0.177-0.057 0.278s0.021 0.196 0.058 0.282l-0.002-0.005 4.503 1.419c2.81 0.884 4.813 3.466 4.813 6.515 0 0.052-0.001 0.103-0.002 0.154l0-0.008v2.56c0 0.004 0 0.009 0 0.014 0 3.060-2.017 5.65-4.794 6.511l-0.048 0.013-4.503 1.419c-0.036 0.082-0.057 0.177-0.057 0.278s0.021 0.196 0.058 0.282l-0.002-0.005 2.066 3.886c0.504 0.923 0.8 2.021 0.8 3.188 0 1.893-0.778 3.603-2.032 4.83l-0.001 0.001-1.789 1.82c-1.233 1.258-2.949 2.037-4.847 2.037-1.173 0-2.276-0.297-3.238-0.821l0.036 0.018-4.195-2.19c-0.175 0.064-0.305 0.214-0.339 0.398l-0.001 0.003-1.326 4.195c-0.874 2.825-3.464 4.842-6.524 4.842-0.005 0-0.010 0-0.015 0h0.001zM32.108 26.988c-0.028-0.001-0.060-0.001-0.092-0.001-2.76 0-4.997 2.237-4.997 4.997s2.237 4.997 4.997 4.997c2.748 0 4.979-2.219 4.996-4.963v-0.002c0-0.009 0-0.020 0-0.031 0-2.742-2.223-4.966-4.966-4.966-0.022 0-0.043 0-0.065 0l0.003-0zM32.108 20.819c0.009 0 0.020-0 0.031-0 6.166 0 11.165 4.999 11.165 11.165s-4.999 11.165-11.165 11.165c-6.166 0-11.165-4.999-11.165-11.165v0c0.017-6.099 4.922-11.048 11.003-11.134l0.008-0zM30.843 6.169c-0.015-0.001-0.032-0.002-0.049-0.002-0.304 0-0.558 0.209-0.629 0.491l-0.001 0.004-1.419 4.195c-0.791 2.748-3.282 4.724-6.235 4.724-1.031 0-2.005-0.241-2.87-0.669l0.038 0.017-4.256-2.221c-0.064-0.022-0.139-0.035-0.216-0.035s-0.152 0.013-0.221 0.037l0.005-0.001c-0.149 0.030-0.277 0.107-0.369 0.215l-0.001 0.001-1.82 1.82c-0.092 0.107-0.148 0.248-0.148 0.401s0.056 0.294 0.149 0.402l-0.001-0.001 2.036 3.917c0.509 0.904 0.808 1.983 0.808 3.133 0 2.817-1.799 5.214-4.31 6.106l-0.045 0.014-4.534 1.388c-0.333 0.029-0.593 0.307-0.593 0.645 0 0.033 0.003 0.066 0.007 0.098l-0-0.004v2.56c-0.001 0.015-0.002 0.032-0.002 0.049 0 0.304 0.209 0.559 0.491 0.629l0.004 0.001 4.534 1.388c2.557 0.905 4.355 3.303 4.355 6.12 0 1.15-0.3 2.23-0.825 3.166l0.017-0.033-2.036 3.917c-0.092 0.107-0.148 0.248-0.148 0.401s0.056 0.294 0.149 0.402l-0.001-0.001 1.82 1.82c0.093 0.109 0.221 0.186 0.366 0.215l0.004 0.001c0.064 0.022 0.139 0.035 0.216 0.035s0.152-0.013 0.221-0.037l-0.005 0.001 4.226-2.221c0.827-0.411 1.802-0.652 2.833-0.652 2.953 0 5.444 1.976 6.224 4.678l0.011 0.046 1.295 4.195c0.071 0.286 0.326 0.495 0.63 0.495 0.017 0 0.034-0.001 0.051-0.002l-0.002 0h2.56c0.015 0.001 0.032 0.002 0.049 0.002 0.304 0 0.559-0.209 0.629-0.491l0.001-0.004 1.295-4.195c0.791-2.748 3.282-4.724 6.235-4.724 1.031 0 2.005 0.241 2.87 0.669l-0.038-0.017 4.226 2.221c0.064 0.022 0.139 0.035 0.216 0.035s0.151-0.013 0.221-0.037l-0.005 0.001c0.149-0.030 0.277-0.107 0.369-0.215l0.001-0.001 1.82-1.82c0.092-0.107 0.148-0.248 0.148-0.401s-0.056-0.294-0.149-0.402l0.001 0.001-1.696-4.010c-0.509-0.904-0.808-1.983-0.808-3.133 0-2.817 1.798-5.214 4.31-6.106l0.045-0.014 4.441-1.45c0.286-0.071 0.495-0.326 0.495-0.63 0-0.017-0.001-0.034-0.002-0.051l0 0.002v-2.406c0.001-0.015 0.002-0.032 0.002-0.049 0-0.304-0.209-0.558-0.491-0.629l-0.004-0.001-4.534-1.388c-2.557-0.905-4.355-3.303-4.355-6.12 0-1.15 0.3-2.23 0.825-3.166l-0.017 0.033 2.036-4.102c0.092-0.107 0.148-0.248 0.148-0.401s-0.056-0.294-0.149-0.402l0.001 0.001-1.943-1.789c-0.093-0.109-0.221-0.186-0.366-0.215l-0.004-0.001c-0.064-0.022-0.139-0.035-0.216-0.035s-0.151 0.013-0.221 0.037l0.005-0.001-4.226 2.221c-0.827 0.412-1.802 0.652-2.833 0.652-2.953 0-5.444-1.976-6.224-4.678l-0.011-0.046-1.326-4.102c-0.072-0.286-0.326-0.494-0.629-0.494-0.007 0-0.013 0-0.020 0h0.001z"></path>
</svg>
