<!-- Generated by IcoMoon.io -->
<svg version="1.1" xmlns="http://www.w3.org/2000/svg" width="64" height="64" viewBox="0 0 64 64">
<title>aniadir</title>
<path d="M3.089 35.089c-1.706 0-3.089-1.383-3.089-3.089s1.383-3.089 3.089-3.089v0h23.506c1.272-0.017 2.299-1.044 2.317-2.315v-23.507c0-1.706 1.383-3.089 3.089-3.089s3.089 1.383 3.089 3.089v0 23.506c0.017 1.272 1.044 2.299 2.315 2.317h23.569c1.706 0 3.089 1.383 3.089 3.089s-1.383 3.089-3.089 3.089v0h-23.568c-1.272 0.017-2.299 1.044-2.317 2.315v23.569c0 1.706-1.383 3.089-3.089 3.089s-3.089-1.383-3.089-3.089v0-23.568c-0.017-1.272-1.044-2.299-2.315-2.317h-0.002z"></path>
</svg>
