<!-- Generated by IcoMoon.io -->
<svg version="1.1" xmlns="http://www.w3.org/2000/svg" width="117" height="64" viewBox="0 0 117 64">
<title>arriba</title>
<path d="M107.041 1.686c1.021-1.021 2.431-1.653 3.989-1.653 3.116 0 5.642 2.526 5.642 5.642 0 1.558-0.632 2.969-1.653 3.989v0l-52.706 52.65c-1.016 1.010-2.416 1.634-3.961 1.634s-2.946-0.624-3.962-1.634l0 0-52.706-52.65c-1.021-1.021-1.653-2.431-1.653-3.989 0-3.116 2.526-5.642 5.642-5.642 1.558 0 2.968 0.631 3.989 1.653l45.738 45.738c0.756 0.775 1.811 1.256 2.978 1.256s2.222-0.481 2.977-1.255l0.001-0.001z"></path>
</svg>
