<!-- Generated by IcoMoon.io -->
<svg version="1.1" xmlns="http://www.w3.org/2000/svg" width="79" height="64" viewBox="0 0 79 64">
<title>ayuda</title>
<path d="M28.293 49.664l0.080 0.005c-0.609-0.050-1.225-0.075-1.847-0.075-4.487 0-8.664 1.324-12.077 3.55l0.172-0.088c-2.14 1.192-4.423 2.157-7.056 2.925v-30.525l0.092-0.012c0.798-0.126 1.576-0.311 2.215-0.517v17.21c0 5.031 9.040 5.939 12.823 5.939l-0.039 0.005c0.344-0.051 0.697-0.077 1.055-0.077 1.749 0 3.351 0.628 4.582 1.661zM35.48 45.957l-0.026-0.037c-2.487-3.37-6.485-5.555-10.994-5.555-0.703 0-1.393 0.053-1.991 0.146l0.044-0.003c-0.344 0.032-0.693 0.048-1.046 0.048-1.434 0-2.806-0.266-3.991-0.725v-30.26l-0.079-0.008c0.669 0.088 1.352 0.133 2.046 0.133 1.592 0 3.128-0.239 4.463-0.655 2.837-0.681 5.333-1.286 11.574 12.369zM50.194 49.664c1.23-1.031 2.83-1.657 4.576-1.657 0.347 0 0.688 0.025 1.022 0.072l-0.038-0.005c3.782 0 12.823-0.908 12.823-5.939v-17.21c0.652 0.209 1.443 0.394 2.255 0.518l0.090 0.011v30.525c-2.633-0.768-4.916-1.733-7.056-2.925l0.172 0.088c-3.413-2.226-7.59-3.55-12.077-3.55-0.622 0-1.238 0.025-1.847 0.075l0.080-0.005zM43.045 21.409c6.203-13.655 8.7-13.050 11.347-12.369 1.336 0.415 2.872 0.655 4.463 0.655 0.693 0 1.376-0.045 2.046-0.133l-0.079 0.008v30.26c-1.185 0.459-2.557 0.725-3.991 0.725-0.353 0-0.701-0.016-1.046-0.048l0.044 0.003c-0.598-0.093-1.288-0.147-1.991-0.147-4.498 0-8.485 2.187-10.956 5.556l-0.027 0.038zM39.262 64c0.982-0.014 1.872-0.4 2.536-1.023l-0.002 0.002c8.775-8.095 13.504-5.712 18.913-3.064 4.019 2.413 8.834 3.908 13.984 4.084l0.049 0.001c2.089 0 3.782-1.694 3.782-3.782v0-38.317c0-2.089-1.694-3.782-3.782-3.782v0c-0.232 0.016-0.502 0.025-0.775 0.025-1.948 0-3.79-0.456-5.424-1.267l0.071 0.032v-13.125c0-2.089-1.694-3.783-3.782-3.783-0.856 0-1.645 0.284-2.279 0.763l0.010-0.007c-1.087 0.823-2.462 1.319-3.952 1.319-0.822 0-1.609-0.151-2.334-0.426l0.045 0.015c-5.295-1.248-10.061-2.383-17.059 10.44-7.035-12.823-11.801-11.688-17.097-10.44-0.68 0.26-1.467 0.411-2.289 0.411-1.491 0-2.865-0.495-3.969-1.331l0.017 0.012c-0.617-0.455-1.393-0.729-2.232-0.729-2.079 0-3.767 1.678-3.782 3.753v13.127c-1.563 0.779-3.405 1.235-5.353 1.235-0.273 0-0.543-0.009-0.811-0.026l0.037 0.002c-2.089 0-3.783 1.694-3.783 3.782v0 38.317c0 2.089 1.694 3.782 3.783 3.782v0c5.199-0.177 10.015-1.672 14.167-4.16l-0.134 0.074c5.371-2.648 10.099-5.031 18.913 3.064 0.662 0.621 1.552 1.008 2.532 1.021h0.003z"></path>
</svg>
