<!-- Generated by IcoMoon.io -->
<svg version="1.1" xmlns="http://www.w3.org/2000/svg" width="64" height="64" viewBox="0 0 64 64">
<title>cancelar</title>
<path d="M16.539 20.494c-2.517-2.517 1.438-6.472 3.955-3.955l10.067 10.067c0.719 0.719 2.157 0.719 2.876 0l10.067-10.067c2.517-2.517 6.472 1.438 3.955 3.955l-10.067 10.067c-0.719 0.719-0.719 2.157 0 2.876l10.067 10.067c2.517 2.517-1.438 6.472-3.955 3.955l-10.067-10.067c-0.719-0.719-2.157-0.719-2.876 0l-10.067 10.067c-2.517 2.517-6.472-1.438-3.955-3.955l10.067-10.067c0.719-0.719 0.719-2.157 0-2.876l-10.067-10.067zM14.382 0h35.236c7.91 0 14.382 6.472 14.382 14.382v35.236c0 7.91-6.472 14.382-14.382 14.382h-35.236c-7.91 0-14.382-6.472-14.382-14.382v-35.236c0-7.91 6.472-14.382 14.382-14.382zM49.618 5.753h-35.236c-4.674 0-8.629 3.955-8.629 8.629v35.236c0 4.674 3.955 8.629 8.629 8.629h35.236c4.674 0 8.629-3.955 8.629-8.629v-35.236c0-4.674-3.955-8.629-8.629-8.629z"></path>
</svg>
