<!-- Generated by IcoMoon.io -->
<svg version="1.1" xmlns="http://www.w3.org/2000/svg" width="64" height="64" viewBox="0 0 64 64">
<title>cerrar</title>
<path d="M1.488 7.441c-3.721-3.721 2.233-9.675 5.954-5.954l22.327 22.327c1.488 1.488 2.977 1.488 4.465 0l22.327-22.327c3.721-3.721 9.675 2.233 5.954 5.954l-22.327 22.327c-1.488 1.488-1.488 2.977 0 4.465l22.327 22.327c3.721 3.721-2.233 9.675-5.954 5.954l-22.327-22.327c-1.488-1.488-2.977-1.488-4.465 0l-22.327 22.327c-3.721 3.721-9.675-2.233-5.954-5.954l22.327-22.327c1.488-1.488 1.488-2.977 0-4.465l-22.327-22.327z"></path>
</svg>
