<!-- Generated by IcoMoon.io -->
<svg version="1.1" xmlns="http://www.w3.org/2000/svg" width="79" height="64" viewBox="0 0 79 64">
<title>chat</title>
<path d="M15.856 0.023h47.569c8.457 0 15.856 6.871 15.856 15.856v14.799c0 7.928-5.814 14.799-14.271 15.856v11.628c0 2.643-1.586 4.757-4.228 5.814-2.643 0.529-5.285 0-6.871-2.643l-9.514-14.799h-28.541c-8.457 0-15.856-6.871-15.856-15.856v-14.799c0-8.457 6.871-15.856 15.856-15.856zM57.611 17.994c3.171 0 5.285 2.643 5.285 5.285 0 3.171-2.643 5.285-5.285 5.285-3.171 0-5.285-2.643-5.285-5.285 0-3.171 2.643-5.285 5.285-5.285zM39.641 17.994c3.171 0 5.285 2.643 5.285 5.285 0 3.171-2.643 5.285-5.285 5.285-3.171 0-5.285-2.643-5.285-5.285 0-3.171 2.643-5.285 5.285-5.285zM21.67 17.994c3.171 0 5.285 2.643 5.285 5.285 0 3.171-2.643 5.285-5.285 5.285-3.171 0-5.285-2.643-5.285-5.285 0-3.171 2.643-5.285 5.285-5.285zM63.425 6.894h-47.569c-4.757 0-8.985 4.228-8.985 8.985v14.799c0 4.757 4.228 8.985 8.985 8.985h32.241l10.042 15.328v-15.328h5.285c4.757 0 8.985-4.228 8.985-8.985v-14.799c0-4.757-4.228-8.985-8.985-8.985z"></path>
</svg>
