<!-- Generated by IcoMoon.io -->
<svg version="1.1" xmlns="http://www.w3.org/2000/svg" width="64" height="64" viewBox="0 0 64 64">
<title>check</title>
<path d="M43.11 18.159c0.912-0.851 2.14-1.374 3.49-1.374 2.828 0 5.12 2.292 5.12 5.12 0 1.35-0.523 2.579-1.377 3.493l0.003-0.003-20.48 20.48c-0.93 0.917-2.208 1.483-3.618 1.483s-2.688-0.566-3.619-1.484l0.001 0.001-8.977-8.943c-0.851-0.912-1.374-2.14-1.374-3.49 0-2.828 2.292-5.12 5.12-5.12 1.35 0 2.579 0.523 3.493 1.377l-0.003-0.003 5.325 5.325zM64 32.017c0-0.010 0-0.022 0-0.034 0-17.683-14.334-32.017-32.017-32.017s-32.017 14.335-32.017 32.017c0 17.683 14.335 32.017 32.017 32.017 0.012 0 0.024 0 0.036 0h-0.002c17.656-0.019 31.964-14.327 31.983-31.981v-0.002z"></path>
</svg>
