<!-- Generated by IcoMoon.io -->
<svg version="1.1" xmlns="http://www.w3.org/2000/svg" width="52" height="64" viewBox="0 0 52 64">
<title>copiar</title>
<path d="M44.402 11.556c4 0 7.556 3.556 7.556 7.556v37.333c0 4-3.556 7.556-7.556 7.556h-24.889c-4 0-7.556-3.556-7.556-7.556v-4.444h-4c-4 0-7.556-3.556-7.556-7.556 0-12 0-24.444 0-36.889 0-4 3.556-7.556 7.556-7.556 8 0 16 0 24 0 4 0 7.556 3.556 7.556 7.556v2.667c0 0.444 0.444 1.333 1.333 1.333h3.556zM24.402 40.444c-3.111 0-3.111-4.889 0-4.889h15.111c3.111 0 3.111 4.889 0 4.889h-15.111zM24.402 28.444c-3.111 0-3.111-4.889 0-4.889h15.111c3.111 0 3.111 4.889 0 4.889h-15.111zM24.402 52c-3.111 0-3.111-4.889 0-4.889h15.111c3.111 0 3.111 4.889 0 4.889h-15.111zM11.958 18.667c0-4 3.556-7.556 7.556-7.556h12.889c0.444 0 1.333-0.444 1.333-1.333v-2.222c0-0.889-0.889-1.778-1.778-1.778-7.556 0-16 0-23.111 0-0.889 0-1.778 0.889-1.778 1.778 0 11.111 0 24 0 35.556 0 0.889 0.889 1.778 1.778 1.778s1.778 0 2.222 0c0.444 0 0.889-0.444 0.889-0.889v-24.889zM43.958 57.333c0.889 0 1.778-0.889 1.778-1.778v-36c0-0.889-0.889-1.778-1.778-1.778-7.556 0-16.444 0-23.556 0-0.889 0-1.778 0.889-1.778 1.778 0 11.111 0 24.444 0 36 0 0.889 0.889 1.778 1.778 1.778h23.556z"></path>
</svg>
