<!-- Generated by IcoMoon.io -->
<svg version="1.1" xmlns="http://www.w3.org/2000/svg" width="35" height="64" viewBox="0 0 35 64">
<title>der</title>
<path d="M0.924 5.3c-0.56-0.56-0.906-1.333-0.906-2.188 0-1.709 1.385-3.094 3.094-3.094 0.854 0 1.628 0.346 2.188 0.906v0l28.872 28.903c0.554 0.557 0.896 1.325 0.896 2.172s-0.342 1.615-0.896 2.172l0-0-28.872 28.903c-0.56 0.56-1.333 0.906-2.188 0.906-1.709 0-3.094-1.385-3.094-3.094 0-0.854 0.346-1.628 0.906-2.188v0l25.082-25.052c0.425-0.415 0.689-0.993 0.689-1.633s-0.264-1.218-0.688-1.633l-0-0z"></path>
</svg>
