<!-- Generated by IcoMoon.io -->
<svg version="1.1" xmlns="http://www.w3.org/2000/svg" width="46" height="64" viewBox="0 0 46 64">
<title>discoduro</title>
<path d="M39.788 32.015v-20.912c-0.017-2.729-2.234-4.935-4.966-4.935-0 0-0 0-0 0h-23.719c-2.726 0-4.935 2.209-4.935 4.935v0 41.793c0 2.725 2.209 4.935 4.935 4.935h23.719c0 0 0 0 0 0 2.732 0 4.948-2.206 4.966-4.933v-0.002zM35.593 51.169c0 1.363-1.105 2.468-2.468 2.468v0h-7.927c-0 0-0 0-0 0-1.369 0-2.481-1.101-2.498-2.466v-2.346c0.017-1.366 1.129-2.468 2.498-2.468 0 0 0 0 0 0h7.927c1.363 0 2.468 1.105 2.468 2.468v0zM22.978 28.869c-1.703 0-3.084-1.381-3.084-3.084s1.381-3.084 3.084-3.084c1.703 0 3.084 1.381 3.084 3.084v0c0 1.703-1.381 3.084-3.084 3.084v0zM21.344 37.536c0.106-0.216 0.168-0.471 0.168-0.74 0-0.945-0.766-1.711-1.711-1.711-0.676 0-1.26 0.392-1.538 0.96l-0.004 0.010-7.341 12.152c-0.187 0.327-0.297 0.718-0.297 1.135 0 0.815 0.422 1.532 1.059 1.944l0.009 0.005 1.696 0.833c0.267 0.116 0.577 0.184 0.904 0.184 1.001 0 1.853-0.635 2.175-1.525l0.005-0.016zM25.23 12.060c-0.641-0.104-1.381-0.163-2.134-0.163-6.937 0-12.698 5.033-13.831 11.646l-0.012 0.083c-0.112 0.669-0.176 1.441-0.176 2.227 0 2.314 0.555 4.498 1.54 6.427l-0.037-0.080c0.412 0.637 1.119 1.052 1.923 1.052 1.261 0 2.282-1.022 2.282-2.282 0-0.36-0.084-0.701-0.232-1.004l0.006 0.013c-0.641-1.252-1.016-2.73-1.016-4.297 0-0.464 0.033-0.921 0.097-1.368l-0.006 0.051c0.96-4.292 4.737-7.453 9.252-7.453 5.23 0 9.469 4.239 9.469 9.469 0 0.376-0.022 0.747-0.065 1.112l0.004-0.044c-0.314 1.987-1.221 3.721-2.531 5.060l0.002-0.002c-0.462 0.421-0.75 1.025-0.75 1.696 0 1.266 1.026 2.293 2.293 2.293 0.595 0 1.137-0.226 1.544-0.598l-0.002 0.002c2.039-2.038 3.463-4.691 3.967-7.658l0.012-0.084c0.121-0.691 0.191-1.488 0.191-2.3 0-6.945-5.068-12.707-11.707-13.789l-0.081-0.011zM45.957 11.104v41.793c-0.035 6.129-5.003 11.086-11.133 11.104h-23.72c-6.125-0.017-11.086-4.978-11.104-11.102v-41.794c0.018-6.125 4.978-11.086 11.102-11.104h23.72c6.132 0.017 11.1 4.974 11.134 11.1v0.003z"></path>
</svg>
