<!-- Generated by IcoMoon.io -->
<svg version="1.1" xmlns="http://www.w3.org/2000/svg" width="64" height="64" viewBox="0 0 64 64">
<title>editar</title>
<path d="M45.772 21.374c-0.563-0.559-0.912-1.334-0.912-2.19 0-1.704 1.382-3.086 3.086-3.086 0.848 0 1.617 0.342 2.175 0.896l1.234 1.234 5.212-5.243-5.583-5.552-40.775 40.806-2.498 8.019 8.42-2.56 25.878-25.939c0.529-0.439 1.215-0.705 1.963-0.705 1.703 0 3.084 1.381 3.084 3.084 0 0.794-0.3 1.518-0.793 2.065l0.002-0.003-26.309 26.402c-0.343 0.356-0.783 0.615-1.277 0.736l-0.018 0.004-14.527 4.472c-0.308 0.113-0.664 0.179-1.034 0.179-1.703 0-3.084-1.381-3.084-3.084 0-0.328 0.051-0.644 0.146-0.941l-0.006 0.022 4.318-14.126c0.142-0.584 0.434-1.086 0.832-1.48l43.489-43.489c0.557-0.554 1.326-0.897 2.174-0.897s1.617 0.343 2.175 0.897l9.931 9.931c0.554 0.557 0.897 1.326 0.897 2.174s-0.343 1.617-0.897 2.175l0-0-9.561 9.5c-0.557 0.554-1.326 0.897-2.174 0.897s-1.617-0.343-2.175-0.897l0 0z"></path>
</svg>
