<!-- Generated by IcoMoon.io -->
<svg version="1.1" xmlns="http://www.w3.org/2000/svg" width="61" height="64" viewBox="0 0 61 64">
<title>escudo</title>
<path d="M30.548 0c0.015-0.001 0.032-0.001 0.049-0.001 0.483 0 0.907 0.256 1.142 0.64l0.003 0.006c6.191 10.219 15.573 13.039 27.572 8.916 0.129-0.045 0.277-0.070 0.431-0.070 0.746 0 1.35 0.605 1.35 1.351 0 0.012-0 0.024-0.001 0.036l0-0.002c-0.992 35.472-12.441 38.95-29.711 52.825-0.224 0.186-0.514 0.299-0.83 0.299-0.002 0-0.005 0-0.007 0h0c-0.002 0-0.004 0-0.006 0-0.321 0-0.615-0.113-0.845-0.301l0.002 0.002c-17.27-13.876-28.707-17.354-29.699-52.801-0.001-0.018-0.001-0.038-0.001-0.059 0-0.746 0.605-1.351 1.351-1.351 0.154 0 0.303 0.026 0.441 0.074l-0.010-0.003c11.951 4.099 21.381 1.279 27.62-8.94 0.239-0.39 0.662-0.646 1.146-0.646 0.017 0 0.035 0 0.052 0.001l-0.003-0zM43.503 20.688c0.271-0.271 0.645-0.438 1.058-0.438 0.826 0 1.496 0.67 1.496 1.496 0 0.413-0.167 0.787-0.438 1.058l-19.517 19.517c-0.27 0.271-0.645 0.439-1.058 0.439s-0.787-0.168-1.058-0.439v0l-8.521-8.533c-0.234-0.263-0.377-0.611-0.377-0.993 0-0.825 0.669-1.494 1.494-1.494 0.385 0 0.735 0.145 1 0.384l-0.001-0.001 6.669 6.681c0.21 0.188 0.489 0.303 0.795 0.303s0.585-0.115 0.796-0.304l-0.001 0.001zM30.548 60.952c0.319-0.001 0.611-0.113 0.839-0.301l-0.002 0.002c19.278-15.238 25.887-19.086 27.178-46.491 0.001-0.019 0.002-0.041 0.002-0.063 0-0.746-0.605-1.351-1.35-1.351-0.115 0-0.227 0.014-0.334 0.041l0.009-0.002c-10.051 2.546-18.895 0.275-25.301-8.055-0.249-0.318-0.632-0.522-1.063-0.526h-0.001c-0.002 0-0.004 0-0.006 0-0.43 0-0.813 0.205-1.055 0.523l-0.002 0.003c-6.406 8.366-15.25 10.601-25.301 8.055-0.101-0.027-0.217-0.043-0.337-0.043-0.739 0-1.339 0.599-1.339 1.339 0 0.028 0.001 0.055 0.002 0.083l-0-0.004c1.327 27.405 7.948 31.253 27.225 46.491 0.224 0.186 0.514 0.299 0.83 0.299 0.002 0 0.005 0 0.007 0h-0z"></path>
</svg>
