<!-- Generated by IcoMoon.io -->
<svg version="1.1" xmlns="http://www.w3.org/2000/svg" width="48" height="64" viewBox="0 0 48 64">
<title>flecha-arriba</title>
<path d="M24.132 0c-0.006-0-0.013-0-0.020-0-0.938 0-1.787 0.378-2.404 0.99l0-0-20.685 20.685c-0.613 0.617-0.992 1.468-0.992 2.406 0 1.886 1.529 3.415 3.415 3.415 0.947 0 1.805-0.386 2.423-1.009l14.848-14.848v48.981c0 1.885 1.528 3.413 3.413 3.413v0c1.885 0 3.413-1.528 3.413-3.413v0-48.981l14.848 14.848c0.593 0.51 1.37 0.821 2.22 0.821 1.885 0 3.413-1.528 3.413-3.413 0-0.85-0.311-1.627-0.825-2.225l0.004 0.005-20.685-20.685c-0.613-0.609-1.457-0.986-2.389-0.99h-0.001z"></path>
</svg>
