<!-- Generated by IcoMoon.io -->
<svg version="1.1" xmlns="http://www.w3.org/2000/svg" width="48" height="64" viewBox="0 0 48 64">
<title>flecha-abajo</title>
<path d="M24.132 64c0.932-0.004 1.776-0.381 2.39-0.99l20.685-20.685c0.457-0.575 0.733-1.312 0.733-2.113 0-1.885-1.528-3.413-3.413-3.413-0.81 0-1.554 0.282-2.139 0.753l0.007-0.005-14.848 14.814v-48.947c0-1.885-1.528-3.413-3.413-3.413v0c-1.885 0-3.413 1.528-3.413 3.413v0 48.947l-14.848-14.814c-0.596-0.52-1.381-0.837-2.239-0.837-1.885 0-3.413 1.528-3.413 3.413 0 0.842 0.305 1.612 0.81 2.208l-0.004-0.005 20.685 20.685c0.617 0.612 1.466 0.99 2.404 0.99 0.007 0 0.014 0 0.021-0h-0.001z"></path>
</svg>
