<!-- Generated by IcoMoon.io -->
<svg version="1.1" xmlns="http://www.w3.org/2000/svg" width="64" height="64" viewBox="0 0 64 64">
<title>guardar</title>
<path d="M32.017 35.021c-0.051-0.002-0.111-0.003-0.171-0.003-3.148 0-5.7 2.552-5.7 5.7s2.552 5.7 5.7 5.7c3.147 0 5.699-2.551 5.7-5.698v-0c0-0.010 0-0.022 0-0.034 0-3.129-2.537-5.666-5.666-5.666-0 0-0 0-0 0v0zM21.504 6.827v7.305h12.117v-7.305zM40.448 6.827v10.752c0 1.885-1.528 3.413-3.413 3.413v0h-18.978c-1.885 0-3.413-1.528-3.413-3.413v0-10.752h-7.373c-0.245 0-0.444 0.199-0.444 0.444v0 46.080c0.019 2.115 1.739 3.823 3.857 3.823 0 0 0 0 0 0h42.633c0 0 0 0 0 0 2.118 0 3.838-1.707 3.857-3.821v-33.726c0.003-0.030 0.005-0.065 0.005-0.101 0-0.3-0.134-0.57-0.345-0.751l-0.001-0.001-11.605-11.605c-0.205-0.211-0.492-0.342-0.809-0.342-0.016 0-0.031 0-0.047 0.001l0.002-0zM7.27 0h37.103c0.018-0 0.038-0 0.059-0 2.196 0 4.181 0.901 5.605 2.354l11.607 11.607c1.454 1.426 2.355 3.411 2.355 5.607 0 0.021-0 0.042-0 0.063v-0.003 37.137c-0.019 4.001-3.267 7.236-7.27 7.236 0 0-0 0-0 0h-49.459c0 0-0 0-0 0-4.003 0-7.251-3.236-7.27-7.234v-49.495c0.019-4.008 3.263-7.251 7.269-7.27h0.002zM32.017 30.003c5.919 0 10.718 4.799 10.718 10.718s-4.799 10.718-10.718 10.718c-5.919 0-10.718-4.799-10.718-10.718v0c0-5.919 4.799-10.718 10.718-10.718v0z"></path>
</svg>
