<!-- Generated by IcoMoon.io -->
<svg version="1.1" xmlns="http://www.w3.org/2000/svg" width="35" height="64" viewBox="0 0 35 64">
<title>izq</title>
<path d="M34.142 58.7c0.563 0.559 0.911 1.333 0.911 2.188 0 1.703-1.38 3.083-3.083 3.083-0.848 0-1.615-0.342-2.173-0.895l-28.903-28.903c-0.554-0.557-0.896-1.325-0.896-2.172s0.342-1.615 0.896-2.172l28.903-28.903c0.557-0.553 1.325-0.895 2.172-0.895 1.703 0 3.083 1.38 3.083 3.083 0 0.855-0.348 1.629-0.911 2.188l-25.083 25.082c-0.418 0.418-0.676 0.995-0.676 1.633s0.258 1.215 0.676 1.633v0z"></path>
</svg>
