<!-- Generated by IcoMoon.io -->
<svg version="1.1" xmlns="http://www.w3.org/2000/svg" width="50" height="64" viewBox="0 0 50 64">
<title>log-out</title>
<path d="M43.168 14.769c0-4.376-3.282-7.658-7.658-7.658h-8.752c-4.376 0-4.376-7.111 0-7.111h11.487c6.564 0 11.487 5.47 11.487 11.487v40.479c0 6.564-5.47 11.487-11.487 11.487h-11.487c-4.376 0-4.376-7.111 0-7.111h8.752c4.376 0 7.658-3.282 7.658-7.658v-33.914zM14.723 24.615c2.735-2.735-1.641-7.111-4.376-4.376l-9.299 9.299c-1.094 1.094-1.094 3.282 0 4.376l9.299 9.299c2.735 2.735 7.111-1.641 4.376-4.376l-5.47-5.47c-1.094-1.094-1.094-2.188 0-3.282l5.47-5.47zM32.775 27.897c-2.188 0-4.376 1.641-4.376 4.376 0 2.188 1.641 4.376 4.376 4.376 2.188 0 4.376-1.641 4.376-4.376 0-2.188-1.641-4.376-4.376-4.376z"></path>
</svg>
