<!-- Generated by IcoMoon.io -->
<svg version="1.1" xmlns="http://www.w3.org/2000/svg" width="64" height="64" viewBox="0 0 64 64">
<title>procesador</title>
<path d="M38.054 25.606h-12.108c-0.181 0.015-0.325 0.159-0.34 0.338l-0 0.001v12.108c0 0.188 0.152 0.34 0.34 0.34v0h12.108c0.188 0 0.34-0.152 0.34-0.34v0-12.108c-0.015-0.181-0.158-0.325-0.338-0.34l-0.001-0zM25.946 19.429h12.108c3.592 0.017 6.5 2.925 6.517 6.516v12.11c-0.017 3.592-2.925 6.5-6.516 6.517h-12.11c-3.592-0.017-6.5-2.925-6.517-6.516v-12.11c0.017-3.592 2.925-6.5 6.516-6.517h0.002zM49.421 18.904c-0.035-2.362-1.957-4.263-4.324-4.263-0 0-0 0-0 0h-26.131c-2.388 0-4.324 1.936-4.324 4.324v0 26.070c-0 0.018-0 0.040-0 0.062 0 2.388 1.936 4.324 4.324 4.324 0 0 0 0 0 0h26.069c0.018 0 0.040 0 0.062 0 2.388 0 4.324-1.936 4.324-4.324 0-0 0-0 0-0.001v0c-0.216-8.741 0-17.297 0-26.193zM22.054 55.598v5.436c0 1.706-1.383 3.089-3.089 3.089s-3.089-1.383-3.089-3.089v0-5.961c-3.325-1.057-5.893-3.624-6.929-6.875l-0.021-0.075h-5.838c-1.706 0-3.089-1.383-3.089-3.089s1.383-3.089 3.089-3.089v0h5.374v-6.857h-5.375c-1.706 0-3.089-1.383-3.089-3.089s1.383-3.089 3.089-3.089v0h5.375v-6.857h-5.375c-1.706 0-3.089-1.383-3.089-3.089s1.383-3.089 3.089-3.089v0h5.869c1.051-3.319 3.606-5.884 6.844-6.929l0.075-0.021v-5.838c0-1.706 1.383-3.089 3.089-3.089s3.089 1.383 3.089 3.089v0 5.374h6.857v-5.375c0-1.706 1.383-3.089 3.089-3.089s3.089 1.383 3.089 3.089v0 5.375h6.857v-5.375c0-1.706 1.383-3.089 3.089-3.089s3.089 1.383 3.089 3.089v0 5.869c3.325 1.057 5.893 3.624 6.929 6.875l0.021 0.075h5.9c1.706 0 3.089 1.383 3.089 3.089s-1.383 3.089-3.089 3.089v0h-5.374v6.826h5.436c1.706 0 3.089 1.383 3.089 3.089s-1.383 3.089-3.089 3.089v0h-5.436v6.857h5.436c1.706 0 3.089 1.383 3.089 3.089s-1.383 3.089-3.089 3.089v0h-5.961c-1.057 3.325-3.624 5.893-6.875 6.929l-0.075 0.021v5.9c0 1.706-1.383 3.089-3.089 3.089s-3.089-1.383-3.089-3.089v0-5.374h-6.857v5.436c0 1.706-1.383 3.089-3.089 3.089s-3.089-1.383-3.089-3.089v0-5.436z"></path>
</svg>
