<!-- Generated by IcoMoon.io -->
<svg version="1.1" xmlns="http://www.w3.org/2000/svg" width="150" height="64" viewBox="0 0 150 64">
<title>ram</title>
<path d="M84.419 55.558v6.12c0 0 0 0 0 0.001 0 1.264-1.010 2.291-2.266 2.321l-0.003 0h-67.904c-1.387-0.029-2.504-1.146-2.533-2.53l-0-0.003v-6.12c0-0 0-0 0-0.001 0-1.264 1.009-2.291 2.266-2.321l0.003-0h68.010c1.342 0.085 2.401 1.181 2.427 2.53l0 0.002z"></path>
<path d="M137.708 55.558v5.909c0 0 0 0 0 0.001 0 1.38-1.104 2.502-2.477 2.532l-0.003 0h-35.931c-1.282 0-2.322-1.039-2.322-2.322v0-5.909c0-0 0-0 0-0.001 0-1.38 1.104-2.502 2.477-2.532l0.003-0h35.931c1.282 0 2.321 1.039 2.321 2.322v0z"></path>
<path d="M147.997 17.148c0.896-0.298 1.531-1.128 1.531-2.107 0-0.020-0-0.039-0.001-0.059l0 0.003v-9.075c0-0 0-0 0-0 0-3.245-2.616-5.879-5.854-5.909h-137.816c-3.241 0.030-5.857 2.664-5.857 5.909 0 0 0 0 0 0v0 9.075c-0 0.017-0.001 0.036-0.001 0.056 0 0.979 0.635 1.81 1.515 2.103l0.016 0.005c2.027 0.593 3.483 2.435 3.483 4.617s-1.455 4.024-3.449 4.608l-0.034 0.009c-0.848 0.311-1.456 1.078-1.53 1.997l-0.001 0.008v9.128c0 3.234 2.622 5.857 5.857 5.857v0h137.814c3.234 0 5.857-2.622 5.857-5.857v-9.128c-0.074-0.927-0.683-1.694-1.514-2l-0.016-0.005c-1.913-0.623-3.271-2.39-3.271-4.474 0-0.004 0-0.007 0-0.011v0.001c-0.003-0.059-0.004-0.127-0.004-0.196 0-2.106 1.356-3.895 3.242-4.542l0.034-0.010zM65.847 25.589c-0.030 4.028-3.302 7.281-7.334 7.281-0 0-0 0-0 0h-7.703c-4.021 0-7.281-3.26-7.281-7.281v0-7.756c0-4.021 3.26-7.281 7.281-7.281v0h7.703c0 0 0 0 0 0 4.032 0 7.304 3.253 7.334 7.278v0.003zM98.717 25.589c0 4.021-3.26 7.281-7.281 7.281v0h-7.756c-4.021 0-7.281-3.26-7.281-7.281v0-7.756c0-4.021 3.26-7.281 7.281-7.281v0h7.756c4.021 0 7.281 3.26 7.281 7.281v0zM131.641 25.589c0 4.021-3.26 7.281-7.281 7.281v0h-7.756c-4.021 0-7.281-3.26-7.281-7.281v0-7.756c0-4.021 3.26-7.281 7.281-7.281h7.756c0.079-0.003 0.171-0.005 0.264-0.005 4.021 0 7.281 3.26 7.281 7.281 0 0.002 0 0.003 0 0.005v-0z"></path>
</svg>
