<!-- Generated by IcoMoon.io -->
<svg version="1.1" xmlns="http://www.w3.org/2000/svg" width="64" height="64" viewBox="0 0 64 64">
<title>red</title>
<path d="M60.679 28.986c4.018 0 4.018 6.028 0 6.028h-10.046v8.037h3.215c4.42 0 8.037 3.617 8.037 8.037v4.42c0 4.42-3.617 8.037-8.037 8.037h-12.457c-4.42 0-8.037-3.617-8.037-8.037v-4.42c0-4.42 3.617-8.037 8.037-8.037h3.215v-8.037h-24.914v8.037h3.215c4.42 0 8.037 3.617 8.037 8.037v4.42c0 4.42-3.617 8.037-8.037 8.037h-12.457c-4.42 0-8.037-3.617-8.037-8.037v-4.42c0-4.42 3.617-8.037 8.037-8.037h3.215v-8.037h-10.448c-4.018 0-4.018-6.028 0-6.028h25.718v-8.037h-3.215c-4.42 0-8.037-3.617-8.037-8.037v-4.42c0-4.42 3.617-8.037 8.037-8.037h12.457c4.42 0 8.037 3.617 8.037 8.037v4.42c0 4.42-3.617 8.037-8.037 8.037h-3.215v8.037h25.718zM47.82 49.48h-6.028c-1.206 0-2.009 0.804-2.009 2.009v4.42c0 1.206 0.804 2.009 2.009 2.009h12.457c1.206 0 2.009-0.804 2.009-2.009v-4.42c0-1.206-0.804-2.009-2.009-2.009h-6.028zM37.773 6.483h-12.457c-1.206 0-2.009 0.804-2.009 2.009v4.42c0 1.206 0.804 2.009 2.009 2.009h12.457c1.206 0 2.009-0.804 2.009-2.009v-4.42c0-1.206-0.804-2.009-2.009-2.009zM10.448 49.48c-1.206 0-2.009 0.804-2.009 2.009v4.42c0 1.206 0.804 2.009 2.009 2.009h12.457c1.206 0 2.009-0.804 2.009-2.009v-4.42c0-1.206-0.804-2.009-2.009-2.009h-12.457z"></path>
</svg>
