<!-- Generated by IcoMoon.io -->
<svg version="1.1" xmlns="http://www.w3.org/2000/svg" width="32" height="32" viewBox="0 0 32 32">
<title>sficon-procesador</title>
<path d="M11.023 27.766v2.711c0 2.031-3.089 2.031-3.089 0v-2.944c-1.65-0.511-2.956-1.817-3.467-3.467h-2.944c-2.031 0-2.031-3.089 0-3.089h2.711v-3.433h-2.711c-2.031 0-2.031-3.089 0-3.089h2.711v-3.433h-2.711c-2.031 0-2.031-3.089 0-3.089h2.944c0.511-1.65 1.817-2.956 3.467-3.467v-2.944c0-2.031 3.089-2.031 3.089 0v2.711h3.433v-2.711c0-2.031 3.089-2.031 3.089 0v2.711h3.433v-2.711c0-2.031 3.089-2.031 3.089 0v2.944c1.65 0.511 2.956 1.817 3.468 3.467h2.943c2.031 0 2.031 3.089 0 3.089h-2.71v3.433h2.71c2.031 0 2.031 3.089 0 3.089h-2.71v3.433h2.71c2.031 0 2.031 3.089 0 3.089h-2.943c-0.511 1.65-1.817 2.956-3.468 3.467v2.944c0 2.031-3.089 2.031-3.089 0v-2.711h-3.433v2.711c0 2.031-3.089 2.031-3.089 0v-2.711zM24.678 9.456c-0.014-1.174-0.981-2.133-2.156-2.133h-13.043c-1.183 0-2.156 0.973-2.156 2.156v13.043c0 1.183 0.973 2.156 2.156 2.156h13.043c1.175 0 2.143-0.959 2.156-2.133-0.084-4.362 0-8.726 0-13.089zM12.979 9.72h6.043c1.795 0 3.258 1.463 3.258 3.258v6.043c0 1.793-1.469 3.258-3.258 3.258h-6.043c-1.788 0-3.259-1.471-3.259-3.258v-6.043c0-1.792 1.467-3.258 3.259-3.258zM19.022 12.809h-6.043c-0.092 0-0.17 0.077-0.17 0.17v6.043c0 0.097 0.073 0.17 0.17 0.17h6.043c0.093 0 0.17-0.077 0.17-0.17v-6.043c0-0.091-0.079-0.17-0.17-0.17z"></path>
</svg>
