<!-- Generated by IcoMoon.io -->
<svg version="1.1" xmlns="http://www.w3.org/2000/svg" width="32" height="32" viewBox="0 0 32 32">
<title>sficon-cancelar</title>
<path d="M8.238 10.226c-1.308-1.308 0.681-3.297 1.989-1.989l5.028 5.028c0.41 0.41 1.080 0.411 1.491 0l5.029-5.029c1.308-1.308 3.297 0.681 1.989 1.989l-5.028 5.029c-0.409 0.409-0.41 1.081 0 1.491l5.028 5.029c1.308 1.308-0.681 3.297-1.989 1.989l-5.029-5.028c-0.41-0.41-1.082-0.409-1.491 0l-5.029 5.029c-1.308 1.308-3.297-0.681-1.989-1.989l5.029-5.029c0.411-0.411 0.409-1.081 0-1.491zM7.129 0h17.743c3.917 0 7.129 3.212 7.129 7.129v17.743c0 3.917-3.212 7.129-7.129 7.129h-17.743c-3.917 0-7.129-3.212-7.129-7.129v-17.743c0-3.917 3.212-7.129 7.129-7.129zM24.871 2.813h-17.743c-2.376 0-4.316 1.939-4.316 4.316v17.743c0 2.376 1.939 4.316 4.316 4.316h17.743c2.376 0 4.316-1.939 4.316-4.316v-17.743c0-2.377-1.939-4.316-4.316-4.316z"></path>
</svg>
