<!-- Generated by IcoMoon.io -->
<svg version="1.1" xmlns="http://www.w3.org/2000/svg" width="31" height="32" viewBox="0 0 31 32">
<title>sficon-escudo</title>
<path d="M12.92 19.179c-0.218 0.218-0.575 0.218-0.793 0l-3.335-3.336c-0.692-0.695-1.749 0.357-1.057 1.052l4.261 4.265c0.292 0.292 0.765 0.292 1.057 0l9.757-9.758c0.695-0.695-0.362-1.752-1.057-1.057zM14.741 2.366c-2.71 4.346-7.892 5.387-12.65 4.029-0.436-0.124-0.857 0.231-0.836 0.684 0.607 12.943 4.545 16.318 13.6 23.251 0.255 0.196 0.581 0.196 0.836 0 9.056-6.933 12.993-10.308 13.6-23.251 0.021-0.453-0.4-0.809-0.836-0.684-4.758 1.358-9.94 0.317-12.65-4.029-0.219-0.351-0.847-0.351-1.066 0zM14.853 31.851c-8.637-6.936-14.357-8.676-14.852-26.403-0.013-0.471 0.444-0.808 0.889-0.655 5.997 2.048 10.691 0.635 13.81-4.473 0.26-0.426 0.887-0.426 1.147 0 3.119 5.108 7.813 6.522 13.81 4.473 0.446-0.152 0.903 0.184 0.89 0.655-0.495 17.727-6.215 19.467-14.852 26.403-0.247 0.198-0.595 0.198-0.842 0z"></path>
</svg>
