<!-- Generated by IcoMoon.io -->
<svg version="1.1" xmlns="http://www.w3.org/2000/svg" width="56" height="32" viewBox="0 0 56 32">
<title>sficon-nube</title>
<path d="M10.243 25.989c3.955 0 3.954 6.011 0 6.011h-5.669c-2.238 0-4.162-1.666-4.476-3.883-0.139-1.007-0.089-2.147-0.093-3.179-0.001-2.234 0.87-4.286 2.294-5.815 1.377-1.478 3.277-2.474 5.41-2.679 1.705-5.552 6.572-9.571 12.346-10.196 7.844-9.717 23.266-7.783 28.446 3.593 7.423 2.502 8.936 9.721 6.984 16.309-0.795 2.69-2.306 5.849-5.556 5.849h-5.67c-3.956 0-3.955-6.011 0-6.011h4.459c0.285 0 0.527-0.16 0.635-0.425 1.562-3.804 1.633-9.352-3.579-10.239-1.086-0.187-1.983-0.952-2.337-1.995-2.88-8.49-14.349-9.96-19.303-2.519-0.558 0.835-1.495 1.339-2.5 1.339-4.357 0.002-8.063 3.323-8.531 7.657-0.383 3.295-2.568 2.609-4.572 2.609-1.398 0-2.518 1.118-2.518 2.517 0.003 0.476 0.021 1.056 0.687 1.056zM23.901 28.024c-2.794 2.796-7.044-1.452-4.248-4.247l6.399-6.399c1.169-1.165 3.080-1.169 4.248 0l6.399 6.399c2.795 2.795-1.453 7.044-4.248 4.248l-3.789-3.789c-0.266-0.266-0.704-0.266-0.97-0.002z"></path>
</svg>
