<!-- Generated by IcoMoon.io -->
<svg version="1.1" xmlns="http://www.w3.org/2000/svg" width="38" height="32" viewBox="0 0 38 32">
<title>sficon-filtro</title>
<path d="M25.018 24.4c0 0.738-0.396 1.384-0.987 1.736l-8.144 5.509c-1.394 0.951-3.244-0.134-3.152-1.777l-0.067-9.997c-0.002-0.341-0.101-0.633-0.307-0.904l-11.948-15.739c-1.013-1.337-0.035-3.23 1.603-3.227h33.636c1.638-0.002 2.616 1.891 1.603 3.227l-11.943 15.733c-0.209 0.276-0.309 0.573-0.307 0.919l0.014 4.521zM16.235 17.416c0.281 0.345 0.45 0.784 0.452 1.262l0.041 6.072c0.004 0.603 0.673 0.948 1.179 0.616l2.741-1.801c0.214-0.141 0.327-0.365 0.327-0.621l0.004-4.266c0.002-0.479 0.171-0.918 0.452-1.262l9.243-12.175c0.377-0.496 0.024-1.208-0.6-1.208h-22.482c-0.624 0-0.976 0.712-0.6 1.208l9.243 12.175z"></path>
</svg>
