<!-- Generated by IcoMoon.io -->
<svg version="1.1" xmlns="http://www.w3.org/2000/svg" width="27" height="32" viewBox="0 0 27 32">
<title>sficon-temp</title>
<path d="M23.021 15.27c9.62 7.884 0.764 20.954-10.263 15.391-3.562-1.796-4.486-6.897-2.835-10.894 0.365-0.886 1.64-0.859 1.968 0.041 1.652 4.525 8.281 1.587 2.786-5.069-1.718-2.082-0.678-6.78 2.862-10.026 0.774-0.709 2 0.027 1.737 1.043-0.817 3.157-0.421 6.358 3.746 9.514zM5.351 0c2.948 0 5.351 2.403 5.351 5.351 0 2.954-2.397 5.351-5.351 5.351-2.948 0-5.351-2.403-5.351-5.351 0-2.955 2.397-5.351 5.351-5.351zM5.351 2.807c-1.405 0-2.544 1.138-2.544 2.544 0 1.411 1.133 2.544 2.544 2.544 1.405 0 2.544-1.139 2.544-2.544 0-1.413-1.13-2.544-2.544-2.544z"></path>
</svg>
