<!-- Generated by IcoMoon.io -->
<svg version="1.1" xmlns="http://www.w3.org/2000/svg" width="32" height="32" viewBox="0 0 32 32">
<title>sficon-cerrar</title>
<path d="M0.639 3.598c-1.948-1.948 1.014-4.909 2.962-2.962l11.291 11.291c0.611 0.611 1.609 0.611 2.22 0l11.291-11.291c1.948-1.948 4.909 1.014 2.962 2.962l-11.29 11.291c-0.612 0.611-0.612 1.609 0 2.22l11.292 11.293c1.948 1.948-1.014 4.909-2.962 2.962l-11.292-11.292c-0.611-0.611-1.609-0.611-2.22 0l-11.292 11.292c-1.948 1.948-4.909-1.014-2.962-2.962l11.292-11.293c0.612-0.611 0.612-1.609 0-2.22z"></path>
</svg>
