<!-- Generated by IcoMoon.io -->
<svg version="1.1" xmlns="http://www.w3.org/2000/svg" width="26" height="32" viewBox="0 0 26 32">
<title>sficon-copiar</title>
<path d="M22.154 5.594c2.014 0 3.804 1.79 3.804 3.804v18.797c0 2.014-1.79 3.804-3.804 3.804h-12.531c-2.014 0-3.804-1.79-3.804-3.804v-1.66c0-0.318-0.26-0.578-0.578-0.578h-1.436c-2.014 0-3.804-1.79-3.804-3.804 0-6.042 0-12.308 0-18.35 0-2.014 1.79-3.804 3.804-3.804 4.028 0 8.056 0 12.084 0 2.014 0 3.804 1.79 3.804 3.804v1.119c0 0.224 0.224 0.671 0.671 0.671zM19.692 20.14c1.567 0 1.567-2.462 0-2.462h-7.608c-1.567 0-1.567 2.462 0 2.462zM19.692 14.098c1.567 0 1.567-2.461 0-2.461h-7.608c-1.567 0-1.567 2.461 0 2.461zM19.692 25.958c1.567 0 1.567-2.462 0-2.462h-7.608c-1.567 0-1.567 2.462 0 2.462zM5.818 9.399c0-2.014 1.79-3.804 3.804-3.804h6.489c0.224 0 0.671-0.224 0.671-0.671v-1.119c0-0.448-0.448-0.895-0.895-0.895-3.804 0-8.055 0-11.636 0-0.448 0-0.895 0.448-0.895 0.895 0 5.594 0 12.084 0 17.678 0 0.448 0.448 0.895 0.895 0.895s0.895 0 1.119 0c0.224 0 0.448-0.224 0.448-0.448zM21.706 28.643c0.448 0 0.895-0.448 0.895-0.895v-17.902c0-0.448-0.448-0.895-0.895-0.895-3.804 0-8.28 0-11.86 0-0.447 0-0.895 0.447-0.895 0.895 0 5.594 0 12.308 0 17.902 0 0.448 0.448 0.895 0.895 0.895z"></path>
</svg>
