<!-- Generated by IcoMoon.io -->
<svg version="1.1" xmlns="http://www.w3.org/2000/svg" width="43" height="32" viewBox="0 0 43 32">
<title>sficon-menu</title>
<path d="M2.28 4.561c-1.259 0-2.28-1.021-2.28-2.28s1.021-2.28 2.28-2.28h38.194c1.259 0 2.28 1.021 2.28 2.28s-1.021 2.28-2.28 2.28zM2.28 18.28c-1.259 0-2.28-1.021-2.28-2.28s1.021-2.28 2.28-2.28h38.194c1.259 0 2.28 1.021 2.28 2.28s-1.021 2.28-2.28 2.28zM2.28 32c-1.259 0-2.28-1.021-2.28-2.28s1.021-2.28 2.28-2.28h38.194c1.259 0 2.28 1.021 2.28 2.28s-1.021 2.28-2.28 2.28z"></path>
</svg>
