<!-- Generated by IcoMoon.io -->
<svg version="1.1" xmlns="http://www.w3.org/2000/svg" width="32" height="32" viewBox="0 0 32 32">
<title>sficon-ajustes</title>
<path d="M16.7 0c1.5 0 2.806 0.968 3.248 2.401l0.637 2.063c0.043 0.139 0.201 0.204 0.33 0.136l1.91-1.008c1.326-0.702 2.934-0.462 3.994 0.598l0.99 0.99c1.061 1.061 1.3 2.668 0.598 3.994l-1.008 1.91c-0.068 0.129-0.003 0.287 0.136 0.33l2.063 0.637c1.434 0.442 2.401 1.748 2.401 3.248v1.399c0 1.5-0.968 2.806-2.401 3.248l-2.063 0.637c-0.139 0.043-0.204 0.201-0.136 0.33l1.008 1.91c0.702 1.326 0.462 2.934-0.598 3.995l-0.99 0.99c-1.061 1.061-2.668 1.3-3.994 0.598l-1.91-1.008c-0.129-0.068-0.287-0.003-0.33 0.136l-0.637 2.063c-0.442 1.434-1.748 2.401-3.248 2.401h-1.4c-1.5 0-2.806-0.968-3.248-2.401l-0.637-2.063c-0.043-0.14-0.201-0.204-0.33-0.136l-1.91 1.008c-1.326 0.701-2.934 0.462-3.994-0.598l-0.99-0.99c-1.061-1.061-1.3-2.668-0.598-3.995l1.008-1.91c0.068-0.129 0.003-0.287-0.136-0.33l-2.063-0.637c-1.434-0.442-2.401-1.748-2.401-3.248v-1.399c0-1.5 0.968-2.806 2.401-3.248l2.063-0.637c0.139-0.043 0.204-0.201 0.136-0.33l-1.008-1.91c-0.702-1.326-0.462-2.934 0.598-3.994l0.99-0.99c1.061-1.061 2.668-1.3 3.994-0.598l1.91 1.008c0.129 0.068 0.287 0.003 0.33-0.136l0.637-2.063c0.442-1.434 1.748-2.401 3.248-2.401zM16 10.411c3.078 0 5.589 2.51 5.589 5.589s-2.51 5.589-5.589 5.589c-3.079 0-5.589-2.51-5.589-5.589s2.51-5.589 5.589-5.589zM16 13.505c-1.385 0-2.495 1.111-2.495 2.495s1.11 2.495 2.495 2.495c1.384 0 2.495-1.11 2.495-2.495s-1.111-2.495-2.495-2.495zM22.165 24.553l2.125 1.139c0.137 0.073 0.3 0.047 0.409-0.062l0.931-0.931c0.109-0.109 0.135-0.272 0.062-0.409l-1.138-2.125c-0.939-1.752-0.049-3.901 1.854-4.476l2.308-0.698c0.149-0.045 0.245-0.178 0.245-0.333v-1.316c0-0.155-0.097-0.288-0.245-0.333l-2.307-0.698c-1.903-0.576-2.792-2.723-1.855-4.475l1.138-2.126c0.073-0.137 0.047-0.3-0.062-0.409l-0.931-0.931c-0.109-0.109-0.272-0.135-0.409-0.062l-2.125 1.138c-1.752 0.939-3.901 0.050-4.476-1.854l-0.698-2.308c-0.045-0.149-0.178-0.245-0.333-0.245h-1.316c-0.155 0-0.288 0.097-0.333 0.245l-0.698 2.307c-0.576 1.903-2.723 2.792-4.476 1.854l-2.126-1.138c-0.137-0.073-0.3-0.047-0.409 0.062l-0.931 0.931c-0.109 0.109-0.135 0.272-0.062 0.409l1.138 2.125c0.939 1.752 0.050 3.901-1.854 4.476l-2.308 0.698c-0.149 0.045-0.245 0.178-0.245 0.333v1.316c0 0.155 0.097 0.288 0.245 0.333l2.307 0.698c1.903 0.576 2.792 2.723 1.855 4.475l-1.138 2.126c-0.073 0.137-0.047 0.3 0.062 0.409l0.931 0.931c0.109 0.109 0.272 0.135 0.409 0.062l2.125-1.138c1.752-0.939 3.901-0.049 4.476 1.854l0.698 2.308c0.045 0.149 0.178 0.245 0.333 0.245h1.316c0.155 0 0.288-0.097 0.333-0.245l0.698-2.308c0.576-1.903 2.723-2.793 4.476-1.854z"></path>
</svg>
