<!-- Generated by IcoMoon.io -->
<svg version="1.1" xmlns="http://www.w3.org/2000/svg" width="27" height="32" viewBox="0 0 27 32">
<title>sficon-notas</title>
<path d="M21.107 11.897c1.985 0.33 1.485 3.351-0.504 3.021-4.539-0.764-8.488-5.039-13.189-1.618-1.623 1.182-3.421-1.287-1.798-2.469 6.538-4.757 9.986 0.14 15.491 1.066zM0.531 5.71c12.717-12.875 15.348 0.119 25.235-0.368 0.844-0.040 1.56 0.613 1.6 1.456l0.006 23.668c0 0.847-0.687 1.534-1.534 1.534-9.989 0-12.926-9.005-23.326-0.36-1.003 0.834-2.511 0.087-2.511-1.175v-23.596c0-0.464 0.206-0.879 0.531-1.16zM3.068 7.5v19.899c9.734-6.53 12.931 0.449 21.235 1.441v-20.457c-9.267-0.645-11.493-10.44-21.235-0.883zM21.107 20.22c1.985 0.33 1.485 3.351-0.504 3.021-4.542-0.765-8.482-5.035-13.189-1.611-1.632 1.182-3.429-1.299-1.798-2.481 6.53-4.75 9.99 0.146 15.491 1.072z"></path>
</svg>
