<!-- Generated by IcoMoon.io -->
<svg version="1.1" xmlns="http://www.w3.org/2000/svg" width="44" height="32" viewBox="0 0 44 32">
<title>sficon-carpeta</title>
<path d="M11.945 12.131h21.4v-3.554c0-0.065-0.058-0.122-0.122-0.122l-18.18 0.001c-1.179 0-2.136-0.957-2.136-2.136v-1.925c0-0.065-0.057-0.122-0.122-0.122h-8.391c-0.071 0-0.122 0.053-0.122 0.122v16.163l2.402-4.959c0.915-1.893 3.129-3.468 5.271-3.468zM37.618 12.131h3.155c2.936 0 4.318 2.768 3.085 5.321l-6.456 13.338c-0.367 0.76-1.127 1.204-1.92 1.205l-33.345 0.004c-1.255 0-2.165-1.017-2.133-2.253l-0.004-25.353c0-2.413 1.981-4.395 4.395-4.395h8.391c2.34 0 4.277 1.848 4.389 4.182h16.049c2.422 0 4.395 1.972 4.395 4.394v3.554zM39.63 16.404h-27.685c-0.505 0-1.237 0.644-1.432 1.049l-4.974 10.276h28.61z"></path>
</svg>
