<!-- Generated by IcoMoon.io -->
<svg version="1.1" xmlns="http://www.w3.org/2000/svg" width="39" height="32" viewBox="0 0 39 32">
<title>sficon-ayuda</title>
<path d="M19.618 31.99c0.463 0 0.924-0.169 1.282-0.505 4.373-4.045 6.746-2.864 9.424-1.53 1.991 0.991 4.105 2.044 7.021 2.044 1.044 0 1.891-0.847 1.891-1.891v-19.165c0-1.044-0.847-1.891-1.891-1.891-1.124 0.066-2.054-0.135-3.066-0.598v-6.564c-0.017-1.527-1.747-2.445-3.006-1.522-1.235 0.908-2.209 0.677-3.116 0.461-2.657-0.63-5.023-1.189-8.54 5.215-3.516-6.404-5.883-5.845-8.539-5.215-0.906 0.216-1.881 0.447-3.116-0.461-1.26-0.923-2.989-0.006-3.006 1.522v6.564c-1.011 0.464-1.942 0.664-3.065 0.598-1.044 0-1.891 0.847-1.891 1.891v19.165c0 1.044 0.847 1.891 1.891 1.891 2.915 0 5.030-1.053 7.020-2.044 2.678-1.333 5.052-2.515 9.425 1.53 0.358 0.335 0.82 0.505 1.282 0.505zM21.509 10.705c3.106-6.828 4.353-6.533 5.777-6.195 0.986 0.234 2.015 0.478 3.212 0.278v15.15c-0.916 0.374-1.727 0.349-2.501 0.325-2.095-0.066-4.024-0.126-6.488 2.735zM25.086 24.828c1.056-0.852 1.899-0.825 2.793-0.797 1.843 0.057 6.401-0.444 6.401-2.975v-8.59c0.379 0.109 0.77 0.198 1.174 0.262v15.251c-1.241-0.308-2.366-0.868-3.445-1.406-2.247-1.119-4.347-2.164-6.922-1.745zM17.727 22.999c-2.463-2.861-4.393-2.801-6.488-2.735-0.773 0.024-1.584 0.049-2.501-0.325v-15.15c1.196 0.2 2.225-0.044 3.212-0.278 1.424-0.338 2.671-0.632 5.777 6.195zM14.15 24.828c-2.575-0.42-4.675 0.625-6.922 1.745-1.079 0.538-2.205 1.098-3.445 1.406v-15.251c0.405-0.064 0.795-0.153 1.174-0.262v8.59c0 2.53 4.558 3.032 6.401 2.975 0.894-0.028 1.737-0.055 2.792 0.797z"></path>
</svg>
