<!-- Generated by IcoMoon.io -->
<svg version="1.1" xmlns="http://www.w3.org/2000/svg" width="32" height="32" viewBox="0 0 32 32">
<title>sficon-admiracion</title>
<path d="M32 16c0-8.836-7.164-16-16-16s-16 7.164-16 16c0 8.836 7.164 16 16 16s16-7.164 16-16zM16.090 22.58c1.158 0 2.096 0.939 2.096 2.096s-0.938 2.096-2.096 2.096c-1.157 0-2.096-0.939-2.096-2.096s0.939-2.096 2.096-2.096zM14.726 6.729h2.728c0.603 0 1.075 0.425 1.037 0.935l-0.818 11.132c-0.034 0.464-0.488 0.825-1.037 0.825h-1.092c-0.55 0-1.003-0.361-1.038-0.825l-0.818-11.132c-0.038-0.51 0.434-0.935 1.037-0.935z"></path>
</svg>
