<!-- Generated by IcoMoon.io -->
<svg version="1.1" xmlns="http://www.w3.org/2000/svg" width="24" height="32" viewBox="0 0 24 32">
<title>sficon-agenda</title>
<path d="M17.008 24.965c2.028 0 2.028-3.084 0-3.084h-9.619c-2.028 0-2.028 3.084 0 3.084zM19.675 0c2.598 0 4.723 2.127 4.723 4.723l-0.008 22.555c-0 2.596-2.126 4.722-4.722 4.722h-14.946c-2.597 0-4.722-2.125-4.722-4.722 0-7.519 0-15.037 0-22.555 0-2.598 2.124-4.723 4.722-4.723 5.084 0 9.869 0 14.953 0zM17.008 10.12c2.028 0 2.028-3.084 0-3.084h-9.619c-2.028 0-2.028 3.084 0 3.084zM17.008 17.542c2.028 0 2.028-3.084 0-3.084h-9.619c-2.028 0-2.028 3.084 0 3.084zM20.14 28.914c0.65 0 1.18-0.531 1.18-1.181l-0.008-23.466c0-0.65-0.532-1.181-1.181-1.181-4.646 0-11.223-0.006-15.869-0.006-0.649 0-1.181 0.531-1.181 1.181 0 7.085 0 16.388 0 23.473 0 0.65 0.531 1.181 1.181 1.181l15.876-0.001z"></path>
</svg>
