<!-- Generated by IcoMoon.io -->
<svg version="1.1" xmlns="http://www.w3.org/2000/svg" width="32" height="32" viewBox="0 0 32 32">
<title>sficon-editar</title>
<path d="M23.302 11.1c-1.434-1.434 0.747-3.615 2.181-2.181l0.194 0.195 2.612-2.612-2.786-2.785-20.402 20.402-1.237 4.024 4.204-1.286 10.453-10.454c1.434-1.434 3.615 0.747 2.181 2.181-4.401 4.401-8.514 8.517-10.716 10.717-0.131 0.131-0.324 0.294-0.644 0.38l-7.279 2.227c-1.173 0.422-2.367-0.676-1.991-1.9l2.171-7.063c0.063-0.272 0.2-0.53 0.412-0.742l21.755-21.755c0.602-0.597 1.574-0.598 2.175 0l4.964 4.962c0.602 0.599 0.605 1.573 0.006 2.175l-4.79 4.797c-0.602 0.602-1.579 0.602-2.181 0l-1.282-1.282z"></path>
</svg>
