<!-- Generated by IcoMoon.io -->
<svg version="1.1" xmlns="http://www.w3.org/2000/svg" width="32" height="32" viewBox="0 0 32 32">
<title>sficon-guardar</title>
<path d="M15.997 15.002c2.947 0 5.344 2.4 5.344 5.348s-2.398 5.348-5.344 5.348c-2.947 0-5.344-2.399-5.344-5.348 0-2.945 2.401-5.348 5.344-5.348zM3.63 0c6.187 0 12.374 0 18.561 0 1.081 0 2.056 0.411 2.821 1.172l5.81 5.804c0.756 0.756 1.173 1.758 1.173 2.828v18.565c0 1.997-1.634 3.63-3.63 3.63h-24.735c-1.997 0-3.63-1.634-3.63-3.63v-24.739c0-1.997 1.632-3.631 3.63-3.631zM20.225 3.418v5.362c0 0.944-0.765 1.709-1.708 1.709h-9.482c-0.943 0-1.709-0.765-1.709-1.709v-5.362h-3.695c-0.116 0-0.212 0.096-0.212 0.213v23.032c0 1.057 0.862 1.919 1.919 1.919h21.321c1.057 0 1.919-0.862 1.919-1.919v-16.858c0-0.191-0.035-0.277-0.171-0.412l-5.804-5.805c-0.121-0.131-0.237-0.17-0.412-0.17zM10.743 3.418v3.654h6.065v-3.654zM15.997 17.515c-1.576 0-2.833 1.258-2.833 2.835 0 1.568 1.265 2.835 2.833 2.835s2.833-1.266 2.833-2.835c0-1.575-1.259-2.835-2.833-2.835z"></path>
</svg>
