<!-- Generated by IcoMoon.io -->
<svg version="1.1" xmlns="http://www.w3.org/2000/svg" width="24" height="32" viewBox="0 0 24 32">
<title>sficon-usuario</title>
<path d="M3.087 30.478c0 2.030-3.087 2.030-3.087 0v-6.917c0-4.162 3.412-7.574 7.574-7.574h9.223c4.162 0 7.574 3.412 7.574 7.574v6.917c0 2.030-3.087 2.030-3.087 0v-6.917c0-2.472-2.015-4.487-4.487-4.487h-9.223c-2.472 0-4.487 2.015-4.487 4.487zM12.185 0c4.052 0 7.352 3.298 7.352 7.352s-3.299 7.352-7.352 7.352c-4.053 0-7.352-3.298-7.352-7.352 0-4.057 3.298-7.352 7.352-7.352zM12.185 3.087c-2.359 0-4.265 1.904-4.265 4.265s1.905 4.266 4.265 4.266c2.36 0 4.266-1.906 4.266-4.266s-1.906-4.265-4.266-4.265z"></path>
</svg>
