<!-- Generated by IcoMoon.io -->
<svg version="1.1" xmlns="http://www.w3.org/2000/svg" width="32" height="32" viewBox="0 0 32 32">
<title>sficon-red</title>
<path d="M5.358 32h6.178c2.245 0 4.082-1.837 4.082-4.082v-2.288c0-2.245-1.837-4.082-4.082-4.082h-1.65v-4.023h12.113v4.023h-1.65c-2.245 0-4.082 1.837-4.082 4.082v2.288c0 2.245 1.837 4.082 4.082 4.082h6.178c2.245 0 4.082-1.837 4.082-4.082v-2.288c0-2.245-1.837-4.082-4.082-4.082h-1.454v-4.023h5.304c0.83 0 1.508-0.678 1.508-1.508v-0.075c0-0.83-0.678-1.508-1.508-1.508h-12.93v-3.982h1.552c2.245 0 4.082-1.837 4.082-4.082v-2.288c0-2.245-1.837-4.082-4.082-4.082h-6.112c-2.245 0-4.082 1.837-4.082 4.082v2.288c0 2.245 1.837 4.082 4.082 4.082h1.552v3.982h-12.93c-0.83 0-1.508 0.679-1.508 1.508v0.075c0 0.83 0.679 1.508 1.508 1.508h5.304v4.023h-1.454c-2.245 0-4.082 1.837-4.082 4.082v2.288c0 2.245 1.837 4.082 4.082 4.082zM15.976 7.368h-3.088c-0.549 0-0.998-0.449-0.998-0.998v-2.287c0-0.549 0.449-0.998 0.998-0.998h6.111c0.549 0 0.998 0.449 0.998 0.998v2.287c0 0.549-0.449 0.998-0.998 0.998zM26.527 28.916h-6.177c-0.549 0-0.998-0.449-0.998-0.998v-2.287c0-0.549 0.449-0.998 0.998-0.998h6.177c0.549 0 0.998 0.449 0.998 0.998v2.287c0 0.549-0.449 0.998-0.998 0.998zM5.359 28.916c-0.549 0-0.998-0.449-0.998-0.998v-2.287c0-0.549 0.449-0.998 0.998-0.998h6.177c0.549 0 0.998 0.449 0.998 0.998v2.287c0 0.549-0.449 0.998-0.998 0.998h-6.177z"></path>
</svg>
