<!-- Generated by IcoMoon.io -->
<svg version="1.1" xmlns="http://www.w3.org/2000/svg" width="32" height="32" viewBox="0 0 32 32">
<title>sficon-chat</title>
<path d="M8.25 0h15.495c4.531 0 8.249 3.719 8.249 8.249v7.743c0 4.186-3.18 7.731-7.332 8.198v4.069c0 1.677-1.058 3.098-2.665 3.578s-3.271-0.125-4.192-1.527l-3.99-6.069h-5.565c-4.54 0-8.25-3.709-8.25-8.249v-7.743c0-4.532 3.716-8.249 8.25-8.249zM20.674 9.298c1.559 0 2.823 1.264 2.823 2.823s-1.264 2.823-2.823 2.823c-1.559 0-2.823-1.264-2.823-2.823s1.264-2.823 2.823-2.823zM11.32 9.298c1.559 0 2.823 1.264 2.823 2.823s-1.264 2.823-2.823 2.823c-1.559 0-2.823-1.264-2.823-2.823s1.264-2.823 2.823-2.823zM23.744 3.596h-15.495c-2.561 0-4.654 2.093-4.654 4.653v7.743c0 2.556 2.098 4.653 4.654 4.653h7.082c0.259 0 0.482 0.12 0.624 0.337l3.741 5.689c0.407 0.618 1.371 0.329 1.371-0.41v-4.868c0-0.411 0.335-0.747 0.747-0.747h1.931c2.561 0 4.654-2.092 4.654-4.653v-7.743c0-2.565-2.088-4.653-4.654-4.653z"></path>
</svg>
