<!-- Generated by IcoMoon.io -->
<svg version="1.1" xmlns="http://www.w3.org/2000/svg" width="25" height="32" viewBox="0 0 25 32">
<title>sficon-cerrar-sesion</title>
<path d="M21.603 24.535c0 2.174-1.778 3.951-3.952 3.951h-4.254c-2.31 0-2.31 3.513 0 3.513h5.85c3.228 0 5.869-2.64 5.869-5.869v-20.263c0-3.228-2.64-5.869-5.869-5.869h-5.85c-2.31 0-2.31 3.513 0 3.513h4.254c2.174 0 3.952 1.778 3.952 3.951zM4.546 15.181c-0.45 0.45-0.45 1.186 0 1.637l2.761 2.759c1.436 1.436-0.748 3.619-2.184 2.183l-4.671-4.669c-0.603-0.603-0.603-1.581 0-2.183l4.671-4.669c1.436-1.436 3.619 0.748 2.183 2.183zM16.306 13.927c1.145 0 2.073 0.928 2.073 2.073s-0.928 2.073-2.073 2.073c-1.145 0-2.073-0.928-2.073-2.073s0.928-2.073 2.073-2.073z"></path>
</svg>
