<!-- Generated by IcoMoon.io -->
<svg version="1.1" xmlns="http://www.w3.org/2000/svg" width="23" height="32" viewBox="0 0 23 32">
<title>sficon-disco-duro</title>
<path d="M22.971 5.552v20.896c0 3.050-2.503 5.552-5.553 5.552h-11.866c-3.053 0-5.552-2.499-5.552-5.552v-20.896c0-3.053 2.499-5.552 5.552-5.552h11.866c3.050 0 5.553 2.502 5.553 5.552zM12.613 6.025c3.814 0.62 6.414 4.219 5.79 8.045-0.214 1.313-0.971 2.967-1.992 3.86-1.098 0.958-2.605-0.708-1.534-1.684 0.654-0.671 1.114-1.546 1.277-2.542 0.421-2.586-1.336-5.010-3.907-5.429-2.57-0.417-5.008 1.322-5.429 3.907-0.162 0.996-0.004 1.972 0.404 2.816 0.705 1.265-1.254 2.367-1.99 1.109-0.685-1.17-0.877-2.979-0.663-4.292 0.623-3.823 4.243-6.41 8.046-5.79zM8.161 25.414c-0.217 0.59-0.878 0.895-1.468 0.677l-0.847-0.415c-0.537-0.328-0.707-1.035-0.38-1.572l3.676-6.078c0.485-0.97 1.998-0.224 1.529 0.743zM11.485 14.438c0.828 0 1.498-0.67 1.498-1.498s-0.67-1.498-1.498-1.498c-0.828 0-1.498 0.67-1.498 1.498s0.67 1.498 1.498 1.498zM17.794 24.418c0-0.68-0.559-1.239-1.239-1.239h-3.96c-0.68 0-1.239 0.559-1.239 1.239v1.167c0 0.68 0.559 1.239 1.239 1.239h3.96c0.68 0 1.239-0.559 1.239-1.239zM19.886 16v-10.448c0-1.361-1.107-2.468-2.468-2.468h-11.866c-1.356 0-2.468 1.111-2.468 2.468v20.896c0 1.356 1.112 2.468 2.468 2.468h11.866c1.361 0 2.468-1.106 2.468-2.468z"></path>
</svg>
