<!-- Generated by IcoMoon.io -->
<svg version="1.1" xmlns="http://www.w3.org/2000/svg" width="32" height="32" viewBox="0 0 32 32">
<title>sficon-modo-claro</title>
<path d="M23.622 11.057c-0.695 0.676-1.807 0.66-2.483-0.034s-0.66-1.807 0.034-2.482l2.652-2.571c0.694-0.675 1.807-0.66 2.482 0.035s0.66 1.807-0.034 2.482zM30.24 14.239c0.972 0 1.76 0.789 1.76 1.761s-0.788 1.76-1.76 1.76h-5.469c-0.972 0-1.76-0.788-1.76-1.76s0.789-1.761 1.76-1.761zM7.229 14.239c0.972 0 1.76 0.789 1.76 1.761s-0.788 1.76-1.76 1.76h-5.469c-0.972 0-1.76-0.788-1.76-1.76s0.788-1.761 1.76-1.761zM14.24 1.76c0-0.972 0.788-1.76 1.76-1.76s1.761 0.788 1.761 1.76v5.469c0 0.972-0.789 1.76-1.761 1.76s-1.76-0.789-1.76-1.76zM14.24 24.771c0-0.972 0.788-1.76 1.76-1.76s1.761 0.788 1.761 1.76v5.469c0 0.972-0.789 1.76-1.761 1.76s-1.76-0.788-1.76-1.76zM10.827 8.54c0.694 0.675 0.71 1.788 0.034 2.482s-1.788 0.71-2.483 0.034l-2.651-2.57c-0.695-0.675-0.71-1.788-0.034-2.482s1.788-0.71 2.482-0.035zM8.174 26.031c-0.694 0.675-1.807 0.66-2.482-0.035s-0.66-1.807 0.034-2.482l2.651-2.57c0.695-0.676 1.807-0.66 2.483 0.034s0.66 1.807-0.034 2.482zM26.274 23.514c0.695 0.675 0.71 1.788 0.034 2.482s-1.788 0.71-2.482 0.035l-2.652-2.571c-0.694-0.675-0.71-1.788-0.034-2.482s1.788-0.71 2.483-0.034zM16 11.050c2.738 0 5.051 2.183 5.051 4.95s-2.314 4.95-5.051 4.95-5.051-2.184-5.051-4.95c0-2.767 2.313-4.95 5.051-4.95zM16 14.571c-0.808 0-1.53 0.591-1.53 1.429s0.721 1.429 1.53 1.429c0.808 0 1.53-0.591 1.53-1.429s-0.721-1.429-1.53-1.429z"></path>
</svg>
