<!-- Generated by IcoMoon.io -->
<svg version="1.1" xmlns="http://www.w3.org/2000/svg" width="55" height="64" viewBox="0 0 55 64">
<title>temp</title>
<path d="M10.733 5.644c-2.811 0-5.089 2.279-5.089 5.089s2.279 5.089 5.089 5.089c2.811 0 5.089-2.279 5.089-5.089v0c0-2.811-2.279-5.089-5.089-5.089v0zM10.733 0c5.928 0 10.733 4.806 10.733 10.733s-4.806 10.733-10.733 10.733c-5.928 0-10.733-4.806-10.733-10.733v0c0-5.928 4.806-10.733 10.733-10.733v0zM46.265 30.628c-8.359-6.169-9.253-12.738-7.526-19.092 0.040-0.154 0.062-0.33 0.062-0.512 0-1.175-0.953-2.128-2.128-2.128-0.546 0-1.045 0.206-1.422 0.544l0.002-0.002c-7.094 6.539-9.253 15.946-5.737 20.11 11.042 13.355-2.252 19.246-5.583 10.178-0.324-0.788-1.085-1.333-1.974-1.333s-1.65 0.545-1.969 1.319l-0.005 0.014c-3.3 8.019-1.172 17.766 5.706 21.868 22.269 10.548 39.788-15.144 20.573-30.967z"></path>
</svg>
