<!-- Generated by IcoMoon.io -->
<svg version="1.1" xmlns="http://www.w3.org/2000/svg" width="49" height="64" viewBox="0 0 49 64">
<title>usuario</title>
<path d="M6.221 60.657c0 3.821-6.209 3.821-6.209 0v-13.851c0-8.119 6.687-15.284 15.284-15.284h18.627c8.119 0 15.284 6.687 15.284 15.284v13.851c0 3.821-6.209 3.821-6.209 0v-13.851c0-4.776-3.821-9.075-9.075-9.075h-18.627c-4.776 0-9.075 3.821-9.075 9.075v13.851zM24.371 0c8.119 0 14.806 6.687 14.806 14.806s-6.687 14.806-14.806 14.806c-8.119 0-14.806-6.687-14.806-14.806s6.687-14.806 14.806-14.806zM24.371 6.209c-4.776 0-8.597 3.821-8.597 8.597s3.821 8.597 8.597 8.597c4.776 0 8.597-3.821 8.597-8.597s-3.821-8.597-8.597-8.597z"></path>
</svg>
